<?xml version="1.0" encoding="utf-8"?>
<!-- Generator: Adobe Illustrator 19.2.0, SVG Export Plug-In . SVG Version: 6.00 Build 0)  -->
<svg version="1.1" id="Layer_1" xmlns="http://www.w3.org/2000/svg" xmlns:xlink="http://www.w3.org/1999/xlink" x="0px" y="0px"
	 width="146.4px" height="35.4px" viewBox="0 0 146.4 35.4" style="enable-background:new 0 0 146.4 35.4;" xml:space="preserve">
<style type="text/css">
	.st0{clip-path:url(#SVGID_2_);fill:#005A9C;}
	.st1{clip-path:url(#SVGID_2_);fill-rule:evenodd;clip-rule:evenodd;fill:#005A9C;}
	.st2{clip-path:url(#SVGID_2_);fill:#5A5844;}
</style>
<g>
	<defs>
		<rect id="SVGID_1_" x="0" width="146.4" height="35.4"/>
	</defs>
	<clipPath id="SVGID_2_">
		<use xlink:href="#SVGID_1_"  style="overflow:visible;"/>
	</clipPath>
	<path class="st0" d="M120.4,21.5c2.2,1,4.4,1.4,7.9,1.4c2.7,0,5.2-0.5,5.2-2.7c0-5.1-15-1.9-15-11.8c0-6.6,7.5-8.4,13.8-8.4
		c3,0,6.6,0.5,8.8,1.1l-2.2,5.2c-2.3-0.7-3.5-0.9-5.9-0.9c-2.1,0-5.7,0.2-5.7,2.5c0,4.4,15,1.5,15,11.3c0,7.1-6.9,9-14,9
		c-3,0-6.6-0.4-9.5-1.2"/>
	<path class="st0" d="M105.3,22.7v-6.2h13.1v-5.2h-13.1V5.6h13.1V0.5H96.8v8.8c-2.1-6.8-8.9-8.8-18.1-8.8H67.1l0,5l8.5,8.7V5.9h3.3
		c6.2,0,9.9,2.8,9.9,8.3c0,5.4-3.5,8.3-9.9,8.3h-3.3l0-8.3l-8.4,8.6l0,5.1h11.5c9,0,16-2.5,18.1-9.2v9.2h21.6v-5.2"/>
	<path class="st1" d="M46.2,15c0.2,4.2,2.3,7.9,7.2,7.9c4.8,0,6.9-3.7,7.2-7.9h8.7c-0.4,8.2-5.9,13.3-15.9,13.3
		c-8.3,0-13.8-3.8-15.2-9.8v9.3h-8.5v-9.3c-2.1,6.8-9.1,9.3-18.1,9.3H0V15h8.5v7.4h3.3c6,0,9.5-2.5,9.8-7.4"/>
	<path class="st1" d="M46.2,13.3c0.2-4.3,2.3-7.8,7.2-7.8c4.8,0,6.9,3.5,7.2,7.8h8.7C68.9,5,63.5,0,53.4,0C45,0,39.9,3.5,38.1,9.3
		V0.5h-8.5v8.9c-2-6.8-8.9-8.9-18.1-8.9H0v12.8h8.5V5.9h3.3c5.8,0,9.4,2.5,9.8,7.4"/>
	<rect x="0" y="31.8" class="st2" width="1.6" height="3.5"/>
	<polyline class="st2" points="10.3,31.8 12.6,31.8 13.4,34.3 13.4,34.3 13.4,31.8 14.7,31.8 14.7,35.3 12.4,35.3 11.6,32.8 
		11.6,32.8 11.6,35.3 10.3,35.3 	"/>
	<path class="st2" d="M26.8,35.2c-0.3,0.1-0.7,0.1-1.1,0.1c-1.4,0-2.4-0.6-2.4-1.9c0-1.2,1.1-1.8,2.4-1.8c0.4,0,0.7,0,1.1,0.1v0.9
		c-0.3-0.1-0.5-0.1-0.8-0.1c-0.7,0-1.2,0.3-1.2,0.9c0,0.6,0.5,0.9,1.1,0.9c0.3,0,0.6-0.1,0.8-0.1"/>
	<path class="st2" d="M37.4,35.4c-1.4,0-2.3-0.6-2.3-1.8c0-1.2,0.8-1.8,2.3-1.8c1.4,0,2.3,0.6,2.3,1.8
		C39.6,34.8,38.8,35.4,37.4,35.4 M37.4,34.5c0.6,0,0.6-0.6,0.6-1c0-0.3,0-1-0.6-1c-0.6,0-0.6,0.6-0.6,1
		C36.7,33.9,36.8,34.5,37.4,34.5z"/>
	<path class="st2" d="M48.1,31.8h2.5c1,0,1.6,0.3,1.6,0.9c0,0.5-0.4,0.8-1,0.9v0c0.3,0,0.5,0.2,0.7,0.4c0.2,0.4,0.2,0.9,0.4,1.3
		h-1.6c-0.1-0.3-0.1-0.8-0.2-1c-0.1-0.2-0.3-0.2-0.4-0.2h-0.4v1.2h-1.6 M49.6,33.3H50c0.3,0,0.6,0,0.6-0.4c0-0.3-0.3-0.4-0.6-0.4
		h-0.4V33.3z"/>
	<path class="st2" d="M60.8,31.8h2.7c0.6,0,1.5,0.3,1.5,1.2c0,0.9-0.7,1.3-1.5,1.3h-1.1v1h-1.6 M62.3,33.5h0.3
		c0.4,0,0.8-0.1,0.8-0.5c0-0.4-0.4-0.4-0.8-0.4h-0.3V33.5z"/>
	<path class="st2" d="M75.6,35.4c-1.4,0-2.3-0.6-2.3-1.8c0-1.2,0.8-1.8,2.3-1.8c1.4,0,2.3,0.6,2.3,1.8
		C77.9,34.8,77.1,35.4,75.6,35.4 M75.6,34.5c0.6,0,0.6-0.6,0.6-1c0-0.3,0-1-0.6-1c-0.6,0-0.6,0.6-0.6,1C75,33.9,75.1,34.5,75.6,34.5
		z"/>
	<path class="st2" d="M86.4,31.8h2.5c1,0,1.6,0.3,1.6,0.9c0,0.5-0.4,0.8-1,0.9v0c0.3,0,0.5,0.2,0.7,0.4c0.2,0.4,0.2,0.9,0.4,1.3H89
		c-0.1-0.3-0.1-0.8-0.2-1c-0.1-0.2-0.2-0.2-0.4-0.2H88v1.2h-1.6 M87.9,33.3h0.4c0.3,0,0.6,0,0.6-0.4c0-0.3-0.3-0.4-0.6-0.4h-0.4
		V33.3z"/>
	<path class="st2" d="M100.1,31.8h2.1l1.5,3.5h-1.6l-0.3-0.8h-1.3l-0.2,0.8h-1.6 M100.7,33.7h0.9l-0.4-1.2h0L100.7,33.7z"/>
	<polyline class="st2" points="115.8,32.8 114.4,32.8 114.4,35.3 112.8,35.3 112.8,32.8 111.4,32.8 111.4,31.8 115.8,31.8 	"/>
	<polyline class="st2" points="124.2,31.8 127.7,31.8 127.7,32.6 125.7,32.6 125.7,33.1 127.6,33.1 127.6,34 125.7,34 125.7,34.5 
		127.7,34.5 127.7,35.3 124.2,35.3 	"/>
	<path class="st2" d="M136.3,31.8h2.3c1.2,0,2,0.3,2,1.8c0,1.3-0.9,1.8-2.1,1.8h-2.2 M137.9,34.4h0.4c0.6,0,0.7-0.3,0.7-0.9
		c0-0.6-0.1-0.9-0.7-0.9h-0.4V34.4z"/>
	<path class="st0" d="M146.4,27.1c0,1.1-0.9,1.9-1.9,1.9c-1.1,0-2-0.8-2-1.9c0-1.1,0.9-1.9,2-1.9C145.6,25.2,146.4,26,146.4,27.1
		 M143,27.1c0,0.8,0.6,1.5,1.5,1.5c0.8,0,1.4-0.7,1.4-1.5c0-0.8-0.6-1.5-1.5-1.5C143.7,25.6,143,26.2,143,27.1z M144.2,28h-0.4v-1.9
		c0.2,0,0.4-0.1,0.7-0.1c0.4,0,0.5,0.1,0.6,0.2c0.1,0.1,0.2,0.2,0.2,0.4c0,0.2-0.2,0.4-0.4,0.4v0c0.2,0.1,0.3,0.2,0.3,0.5
		c0.1,0.3,0.1,0.4,0.1,0.5H145c-0.1-0.1-0.1-0.2-0.1-0.5c0-0.2-0.2-0.3-0.4-0.3h-0.2V28z M144.2,27h0.2c0.2,0,0.4-0.1,0.4-0.3
		c0-0.2-0.1-0.3-0.4-0.3c-0.1,0-0.2,0-0.2,0V27z"/>
</g>
</svg>
