<svg xmlns="http://www.w3.org/2000/svg" width="360" height="95.037" viewBox="0 0 360 95.037">
  <g id="Group_4924" data-name="Group 4924" transform="translate(-50.25 -40.746)">
    <g id="Group_3" data-name="Group 3" transform="translate(50.25 40.747)">
      <path id="Path_13" data-name="Path 13" d="M58.883,73.414c-.872-13.549,15.2-26.282,38.647-32.667A44.268,44.268,0,0,1,111,46.067c-24.007,3.9-41.524,16.719-40.542,30.71.63,12.857,16.149,22.756,36.911,25.418C80.207,99.783,59.724,88.432,58.883,73.414" transform="translate(-46.922 -40.747)" fill="#003b69"/>
      <path id="Path_14" data-name="Path 14" d="M81.352,78.158c.734,10.3,16.691,17.945,36.661,18.017a42.842,42.842,0,0,0,4.776-14.93,43.714,43.714,0,0,0-5.618-25.88c-20.672,2.3-36.354,12.02-35.82,22.792" transform="translate(-38.221 -35.079)" fill="#003b69"/>
      <path id="Path_15" data-name="Path 15" d="M71.619,76.084c.7,11.1,14.7,19.666,34.09,22.3C91.21,95.8,80.863,88.5,80.376,79.491c-.8-12.409,16.1-23.4,37.82-25.036a46.506,46.506,0,0,0-5.607-6.575C88.507,51.721,70.9,63.436,71.619,76.084" transform="translate(-41.99 -37.988)" fill="#003b69"/>
      <path id="Path_16" data-name="Path 16" d="M127.153,97.154a33.688,33.688,0,0,1-5.663.438c-35.914,2.3-65.972-12.113-67.069-32.2a19.718,19.718,0,0,1,2.205-10.642A40.578,40.578,0,0,0,50.507,72.34a42.457,42.457,0,0,0,79.46,24.767c-.942-.007-1.763.072-2.466.085-.269.046-.4.046-.348-.037" transform="translate(-50.25 -35.301)" fill="#003b69"/>
      <path id="Path_17" data-name="Path 17" d="M143.091,67.176l14.456-10.549L147,71.084l19.049.1A23.915,23.915,0,0,0,159.5,56.239c-4.506-4.431-10.884-6.887-18.867-7.333Z" transform="translate(-15.28 -37.59)" fill="#003b69"/>
      <path id="Path_18" data-name="Path 18" d="M145.262,80.485,131.2,91.037l10.16-14.46-17.585-2.732,17.585-2.735L131.2,56.653,145.262,67.2l2.817-18.292c-.673-.029-1.337-.071-2.035-.071H127.291v1.172l-7.423,47.277v1.563H148c.05,0,.1,0,.146,0Z" transform="translate(-23.314 -37.616)" fill="#003b69"/>
    </g>
    <path id="Path_19" data-name="Path 19" d="M230.3,71.721l3.35-21.319V48.839h-13.68v1.172l-3.349,21.637Z" transform="translate(64.434 3.131)" fill="#003b69"/>
    <path id="Path_20" data-name="Path 20" d="M203.692,71.522l2.231.01,15.884.088-14.972-22-.391-.781H193.55l-.391,1.173L189.97,71.448Z" transform="translate(54.117 3.131)" fill="#003b69"/>
    <g id="Group_4" data-name="Group 4" transform="translate(175.581 79.622)">
      <path id="Path_21" data-name="Path 21" d="M147.014,68.867l10.55,14.46L143.107,72.775l-2.516,18.34a25.716,25.716,0,0,0,18.148-7.4,25.073,25.073,0,0,0,7.169-14.949Z" transform="translate(-140.591 -68.767)" fill="#003b69"/>
    </g>
    <path id="Path_22" data-name="Path 22" d="M322.54,48.839H308.078l-.387.393L294.407,63.687,284.637,49.62l-.392-.781H268.62l1.558,1.954L285.152,72.13l18.543.1,19.621-21.047,2.347-2.344Z" transform="translate(84.586 3.131)" fill="#003b69"/>
    <path id="Path_23" data-name="Path 23" d="M304.628,68.029l-19.229.105L265.5,89.08l-1.954,2.347h17.582l.392-.39L295.2,76.578l10.156,14.458.391.39h15.241l-1.564-1.954Z" transform="translate(82.624 10.569)" fill="#003b69"/>
    <path id="Path_24" data-name="Path 24" d="M166.7,71.254l21.153.115,14.7-20.576,1.561-1.954H188.878l-.39.781L177.938,65.64l-5.865-16.02-.387-.781H157.619l.78,1.954Z" transform="translate(41.588 3.131)" fill="#003b69"/>
    <path id="Path_25" data-name="Path 25" d="M167.054,68.749l-3.129,20.868-.393,1.564H177.6V90.009l3.962-21.34Z" transform="translate(43.875 10.817)" fill="#003b69"/>
    <path id="Path_26" data-name="Path 26" d="M220.95,68.472l-1.426.009-15.87.087,14.684,22.325.392.391h12.5V90.113L234.643,68.4Z" transform="translate(59.416 10.712)" fill="#003b69"/>
    <path id="Path_27" data-name="Path 27" d="M190.44,68.619l-3.134,21.045-.39,1.564h13.676l.393-1.171,3.2-21.513Z" transform="translate(52.931 10.768)" fill="#003b69"/>
    <g id="Group_5" data-name="Group 5" transform="translate(146.891 50.402)">
      <path id="Path_28" data-name="Path 28" d="M277.918,83.658c-7.1,4.491-11.943,6.147-17.58,6.254C255.309,89.8,251.56,88.48,249.4,86c-2-2.189-2.774-5.161-2.347-8.99.406-6.137,1.928-9.338,1.957-9.375,1.883-6.005,6.105-9.478,11.721-9.375a7.923,7.923,0,0,1,6.251,2.342c1.344,1.541,2.035,4.029,1.956,7.033l-19.927,9.375h33.211l.392-.388c1.8-8.751.555-16.189-3.912-21.49-3.721-4.865-9.991-7.545-17.582-7.424-15.556-.121-28.434,10.751-31.259,26.182-1.215,7.482.171,13.832,3.91,18.361,4.559,5.355,11.767,8.119,21.1,8.2a41.163,41.163,0,0,0,21.1-5.47" transform="translate(-77.505 -47.708)" fill="#003b69"/>
      <path id="Path_29" data-name="Path 29" d="M121.711,102.193h2.4a6.537,6.537,0,0,0,1.054-.086,2.864,2.864,0,0,0,.932-.313,1.719,1.719,0,0,0,.655-.656,2.613,2.613,0,0,0,0-2.223,1.706,1.706,0,0,0-.655-.655,2.833,2.833,0,0,0-.932-.315,6.537,6.537,0,0,0-1.054-.086h-2.4Zm-1.824-5.929h4.732a5.529,5.529,0,0,1,2.128.351,3.641,3.641,0,0,1,1.322.893,3.044,3.044,0,0,1,.674,1.216,4.554,4.554,0,0,1,0,2.6,3.035,3.035,0,0,1-.674,1.216,3.624,3.624,0,0,1-1.322.893,5.527,5.527,0,0,1-2.128.352h-2.908v5.929h-1.824Z" transform="translate(-119.887 -28.896)" fill="#003b69"/>
      <path id="Path_30" data-name="Path 30" d="M129.976,104.037a3.682,3.682,0,0,0,.209,1.263,2.839,2.839,0,0,0,.589.989,2.738,2.738,0,0,0,.931.646,3.331,3.331,0,0,0,2.469,0,2.744,2.744,0,0,0,.932-.646,2.84,2.84,0,0,0,.589-.989,3.916,3.916,0,0,0,0-2.527,2.821,2.821,0,0,0-.589-.987,2.706,2.706,0,0,0-.932-.646,3.313,3.313,0,0,0-2.469,0,2.7,2.7,0,0,0-.931.646,2.82,2.82,0,0,0-.589.987,3.682,3.682,0,0,0-.209,1.263m-1.825,0a4.569,4.569,0,0,1,.372-1.843,4.856,4.856,0,0,1,6.3-2.517,4.763,4.763,0,0,1,1.52,1.017,4.842,4.842,0,0,1,1.017,1.5,4.592,4.592,0,0,1,.37,1.843,4.686,4.686,0,0,1-1.387,3.355,4.854,4.854,0,0,1-1.52,1.007,4.964,4.964,0,0,1-3.763,0,4.86,4.86,0,0,1-1.521-1.007,4.7,4.7,0,0,1-1.387-3.355" transform="translate(-116.69 -27.719)" fill="#003b69"/>
    </g>
    <path id="Path_31" data-name="Path 31" d="M136.808,99.47h1.919l2.023,6.727h.038l2.157-6.727h1.824l2.281,6.727h.037l1.919-6.727h1.826l-2.908,9.008H146.2l-2.386-6.727h-.039l-2.175,6.727h-1.823Z" transform="translate(33.524 22.746)" fill="#003b69"/>
    <g id="Group_6" data-name="Group 6" transform="translate(186.81 116.857)">
      <path id="Path_32" data-name="Path 32" d="M155.9,103.3a3.6,3.6,0,0,0-.18-1.046,2.31,2.31,0,0,0-.485-.827,2.227,2.227,0,0,0-.807-.551,2.944,2.944,0,0,0-1.13-.2,2.751,2.751,0,0,0-1.15.237,2.811,2.811,0,0,0-.883.617,2.845,2.845,0,0,0-.56.846,2.329,2.329,0,0,0-.2.922Zm-5.4,1.368a2.253,2.253,0,0,0,.257,1.075,2.655,2.655,0,0,0,.674.827,3.123,3.123,0,0,0,.969.531,3.486,3.486,0,0,0,1.14.19,2.549,2.549,0,0,0,1.387-.37,4.438,4.438,0,0,0,1.083-.979l1.293.989a4.755,4.755,0,0,1-3.99,1.843,4.971,4.971,0,0,1-1.929-.361,4.19,4.19,0,0,1-1.463-1,4.415,4.415,0,0,1-.922-1.5,5.285,5.285,0,0,1-.323-1.872,4.928,4.928,0,0,1,.352-1.872,4.665,4.665,0,0,1,.968-1.5,4.454,4.454,0,0,1,1.474-1,4.72,4.72,0,0,1,1.863-.361,4.452,4.452,0,0,1,2.023.417,3.98,3.98,0,0,1,1.358,1.093,4.3,4.3,0,0,1,.77,1.52,6.291,6.291,0,0,1,.237,1.72v.607Z" transform="translate(-148.676 -94.174)" fill="#003b69"/>
      <path id="Path_33" data-name="Path 33" d="M157.891,99.533h1.71v1.387h.037a2.457,2.457,0,0,1,.456-.656,3.1,3.1,0,0,1,.637-.5,3.368,3.368,0,0,1,.77-.331,2.909,2.909,0,0,1,.836-.123,2.4,2.4,0,0,1,.76.112l-.076,1.845a4.045,4.045,0,0,0-.419-.094,2.226,2.226,0,0,0-.417-.039,2.511,2.511,0,0,0-1.918.7,3.086,3.086,0,0,0-.666,2.184v4.524h-1.71Z" transform="translate(-145.111 -94.174)" fill="#003b69"/>
      <path id="Path_34" data-name="Path 34" d="M174.428,101.658h-2.451v4.086c0,.252,0,.5.018.749a1.971,1.971,0,0,0,.141.666,1.081,1.081,0,0,0,.381.476,1.308,1.308,0,0,0,.75.18,3.657,3.657,0,0,0,.627-.057,1.829,1.829,0,0,0,.589-.209v1.559a2.279,2.279,0,0,1-.789.237,5.911,5.911,0,0,1-.749.067,3.429,3.429,0,0,1-1.531-.276,1.872,1.872,0,0,1-.8-.711,2.285,2.285,0,0,1-.3-.979c-.032-.362-.049-.725-.049-1.093v-4.693H168.29v-1.483h1.976V97.648h1.711v2.527h2.451Z" transform="translate(-141.087 -94.816)" fill="#003b69"/>
      <path id="Path_35" data-name="Path 35" d="M175.289,95.606H177v6.746h.037a2.517,2.517,0,0,1,1.121-1.168,3.709,3.709,0,0,1,1.843-.447,3.933,3.933,0,0,1,1.244.2,2.793,2.793,0,0,1,1.046.619,2.958,2.958,0,0,1,.713,1.073,4.1,4.1,0,0,1,.266,1.548v5.8h-1.71v-5.32a3.047,3.047,0,0,0-.171-1.073,1.952,1.952,0,0,0-.456-.723,1.713,1.713,0,0,0-.656-.4,2.392,2.392,0,0,0-.77-.123,2.761,2.761,0,0,0-.987.171,2.066,2.066,0,0,0-.8.541,2.593,2.593,0,0,0-.533.942,4.325,4.325,0,0,0-.189,1.348v4.636h-1.71Z" transform="translate(-138.379 -95.606)" fill="#003b69"/>
      <path id="Path_36" data-name="Path 36" d="M184.09,99.533h1.71v1.387h.039a2.458,2.458,0,0,1,.456-.656,3.135,3.135,0,0,1,.635-.5,3.405,3.405,0,0,1,.771-.331,2.907,2.907,0,0,1,.835-.123,2.4,2.4,0,0,1,.761.112l-.076,1.845a4.13,4.13,0,0,0-.419-.094,2.241,2.241,0,0,0-.419-.039,2.516,2.516,0,0,0-1.918.7,3.086,3.086,0,0,0-.666,2.184v4.524h-1.71Z" transform="translate(-134.974 -94.174)" fill="#003b69"/>
      <path id="Path_37" data-name="Path 37" d="M191.639,104.037a3.682,3.682,0,0,0,.209,1.263,2.861,2.861,0,0,0,.589.989,2.744,2.744,0,0,0,.932.646,3.331,3.331,0,0,0,2.469,0,2.757,2.757,0,0,0,.932-.646,2.858,2.858,0,0,0,.588-.989,3.916,3.916,0,0,0,0-2.527,2.839,2.839,0,0,0-.588-.987,2.719,2.719,0,0,0-.932-.646,3.313,3.313,0,0,0-2.469,0,2.706,2.706,0,0,0-.932.646,2.842,2.842,0,0,0-.589.987,3.682,3.682,0,0,0-.209,1.263m-1.824,0a4.592,4.592,0,0,1,.37-1.843,4.818,4.818,0,0,1,1.017-1.5,4.84,4.84,0,0,1,6.8,0,4.841,4.841,0,0,1,1.017,1.5,4.592,4.592,0,0,1,.37,1.843,4.686,4.686,0,0,1-1.387,3.355,4.869,4.869,0,0,1-1.52,1.007,4.968,4.968,0,0,1-3.764,0,4.838,4.838,0,0,1-1.52-1.007,4.686,4.686,0,0,1-1.387-3.355" transform="translate(-132.759 -94.174)" fill="#003b69"/>
      <path id="Path_38" data-name="Path 38" d="M207.371,108.477h-1.71v-1.386h-.037a2.516,2.516,0,0,1-1.121,1.168,3.709,3.709,0,0,1-1.843.447,3.883,3.883,0,0,1-1.255-.2,2.812,2.812,0,0,1-1.035-.617,2.959,2.959,0,0,1-.713-1.073,4.109,4.109,0,0,1-.266-1.551v-5.8h1.71v5.323a3.033,3.033,0,0,0,.171,1.072,1.987,1.987,0,0,0,.456.723,1.716,1.716,0,0,0,.656.4,2.431,2.431,0,0,0,.77.123,2.792,2.792,0,0,0,.987-.171,2.074,2.074,0,0,0,.8-.542,2.575,2.575,0,0,0,.533-.94,4.335,4.335,0,0,0,.189-1.349V99.469h1.71Z" transform="translate(-129.054 -94.111)" fill="#003b69"/>
      <path id="Path_39" data-name="Path 39" d="M212.659,100.9a3.09,3.09,0,0,0-1.234.237,2.719,2.719,0,0,0-.932.646,2.863,2.863,0,0,0-.589.987,3.715,3.715,0,0,0-.208,1.263,3.026,3.026,0,0,0,.8,2.194,3.25,3.25,0,0,0,4.334,0,3.026,3.026,0,0,0,.8-2.194,3.682,3.682,0,0,0-.209-1.263,2.86,2.86,0,0,0-.588-.987,2.719,2.719,0,0,0-.932-.646,3.092,3.092,0,0,0-1.236-.237m4.675,7.563a4.83,4.83,0,0,1-.351,1.871,4.253,4.253,0,0,1-1,1.463,4.525,4.525,0,0,1-1.557.96,5.714,5.714,0,0,1-2.014.343,7.357,7.357,0,0,1-2.366-.362A5.663,5.663,0,0,1,208,111.486l1.158-1.444a4.736,4.736,0,0,0,1.445,1.093,4.084,4.084,0,0,0,1.767.37,3.926,3.926,0,0,0,1.578-.276,2.716,2.716,0,0,0,1-.713,2.559,2.559,0,0,0,.521-1,4.243,4.243,0,0,0,.153-1.13v-1.33h-.057a3.02,3.02,0,0,1-1.34,1.207,4.206,4.206,0,0,1-1.777.388,4.736,4.736,0,0,1-1.835-.351,4.315,4.315,0,0,1-2.4-2.433,4.826,4.826,0,0,1-.343-1.834,5.248,5.248,0,0,1,.322-1.852,4.568,4.568,0,0,1,.922-1.512,4.16,4.16,0,0,1,1.445-1.007,4.756,4.756,0,0,1,1.89-.362,4.2,4.2,0,0,1,1.777.4,3.274,3.274,0,0,1,1.359,1.122h.037V99.534h1.71Z" transform="translate(-125.773 -94.175)" fill="#003b69"/>
      <path id="Path_40" data-name="Path 40" d="M217.754,95.606h1.71v6.746h.037a2.517,2.517,0,0,1,1.121-1.168,3.709,3.709,0,0,1,1.843-.447,3.933,3.933,0,0,1,1.244.2,2.793,2.793,0,0,1,1.046.619,2.957,2.957,0,0,1,.713,1.073,4.1,4.1,0,0,1,.266,1.548v5.8h-1.71v-5.32a3.048,3.048,0,0,0-.171-1.073,1.951,1.951,0,0,0-.456-.723,1.713,1.713,0,0,0-.656-.4,2.393,2.393,0,0,0-.77-.123,2.762,2.762,0,0,0-.987.171,2.066,2.066,0,0,0-.8.541,2.593,2.593,0,0,0-.533.942,4.326,4.326,0,0,0-.189,1.348v4.636h-1.71Z" transform="translate(-121.949 -95.606)" fill="#003b69"/>
    </g>
    <rect id="Rectangle_1" data-name="Rectangle 1" width="1.824" height="13.454" transform="translate(302.336 117.77)" fill="#003b69"/>
    <g id="Group_7" data-name="Group 7" transform="translate(308.755 121.989)">
      <path id="Path_41" data-name="Path 41" d="M236.584,99.533h1.71v1.387h.037a2.523,2.523,0,0,1,1.121-1.168,3.709,3.709,0,0,1,1.843-.447,3.948,3.948,0,0,1,1.245.2,2.8,2.8,0,0,1,1.044.619,2.957,2.957,0,0,1,.713,1.073,4.1,4.1,0,0,1,.266,1.549v5.8h-1.71v-5.323a3.044,3.044,0,0,0-.171-1.072,1.957,1.957,0,0,0-.456-.721,1.719,1.719,0,0,0-.656-.4,2.431,2.431,0,0,0-.77-.123,2.793,2.793,0,0,0-.988.172,2.067,2.067,0,0,0-.8.541,2.576,2.576,0,0,0-.533.94,4.341,4.341,0,0,0-.189,1.349v4.638h-1.71Z" transform="translate(-236.584 -99.306)" fill="#003b69"/>
      <path id="Path_42" data-name="Path 42" d="M245.386,99.533h1.71v1.387h.037a2.523,2.523,0,0,1,1.121-1.168,3.709,3.709,0,0,1,1.843-.447,3.933,3.933,0,0,1,1.244.2,2.793,2.793,0,0,1,1.046.619,2.959,2.959,0,0,1,.713,1.073,4.1,4.1,0,0,1,.266,1.549v5.8h-1.71v-5.323a3.045,3.045,0,0,0-.171-1.072,1.957,1.957,0,0,0-.456-.721,1.719,1.719,0,0,0-.656-.4,2.431,2.431,0,0,0-.77-.123,2.792,2.792,0,0,0-.987.172,2.056,2.056,0,0,0-.8.541,2.576,2.576,0,0,0-.533.94,4.34,4.34,0,0,0-.189,1.349v4.638h-1.71Z" transform="translate(-233.178 -99.306)" fill="#003b69"/>
      <path id="Path_43" data-name="Path 43" d="M255.667,104.037a3.682,3.682,0,0,0,.208,1.263,2.882,2.882,0,0,0,.589.989,2.757,2.757,0,0,0,.932.646,3.331,3.331,0,0,0,2.469,0,2.756,2.756,0,0,0,.932-.646,2.883,2.883,0,0,0,.589-.989,3.941,3.941,0,0,0,0-2.527,2.864,2.864,0,0,0-.589-.987,2.718,2.718,0,0,0-.932-.646,3.313,3.313,0,0,0-2.469,0,2.719,2.719,0,0,0-.932.646,2.862,2.862,0,0,0-.589.987,3.682,3.682,0,0,0-.208,1.263m-1.825,0a4.57,4.57,0,0,1,.372-1.843,4.827,4.827,0,0,1,7.819-1.5,4.84,4.84,0,0,1,1.017,1.5,4.591,4.591,0,0,1,.37,1.843,4.687,4.687,0,0,1-1.387,3.355,4.869,4.869,0,0,1-1.52,1.007,4.968,4.968,0,0,1-3.764,0,4.853,4.853,0,0,1-1.52-1.007,4.7,4.7,0,0,1-1.387-3.355" transform="translate(-229.907 -99.306)" fill="#003b69"/>
    </g>
    <path id="Path_44" data-name="Path 44" d="M262.421,99.47H264.4l2.7,6.9,2.584-6.9H271.5l-3.536,9.008h-1.881Z" transform="translate(82.188 22.746)" fill="#003b69"/>
    <g id="Group_8" data-name="Group 8" transform="translate(356.258 117.732)">
      <path id="Path_45" data-name="Path 45" d="M276.124,104.209a11.962,11.962,0,0,0-1.245.065,4.9,4.9,0,0,0-1.159.258,2.225,2.225,0,0,0-.854.531,1.2,1.2,0,0,0-.333.874,1.239,1.239,0,0,0,.523,1.122,2.56,2.56,0,0,0,1.415.341,2.751,2.751,0,0,0,1.2-.237,2.243,2.243,0,0,0,.8-.617,2.4,2.4,0,0,0,.438-.846,3.39,3.39,0,0,0,.132-.922v-.569Zm-4.826-3.573a4.739,4.739,0,0,1,1.671-1,5.756,5.756,0,0,1,1.9-.331,5.192,5.192,0,0,1,1.7.247,3.283,3.283,0,0,1,1.169.664,2.631,2.631,0,0,1,.674.96,2.968,2.968,0,0,1,.219,1.132v4.6c0,.318.007.607.019.875s.032.519.057.76h-1.52c-.039-.456-.057-.913-.057-1.369h-.037a3.3,3.3,0,0,1-1.349,1.236,4.271,4.271,0,0,1-1.807.361,4.217,4.217,0,0,1-1.2-.171,2.97,2.97,0,0,1-1-.513,2.454,2.454,0,0,1-.674-.846,2.906,2.906,0,0,1,.143-2.631,2.941,2.941,0,0,1,1.064-.961,5.16,5.16,0,0,1,1.577-.533,11.05,11.05,0,0,1,1.929-.16h1.254v-.381a1.9,1.9,0,0,0-.132-.684,1.856,1.856,0,0,0-1.065-1.054,2.517,2.517,0,0,0-.95-.162,3.541,3.541,0,0,0-.864.094,3.93,3.93,0,0,0-.675.239,2.958,2.958,0,0,0-.551.331c-.165.128-.323.247-.476.362Z" transform="translate(-270.82 -95.05)" fill="#003b69"/>
      <path id="Path_46" data-name="Path 46" d="M284.722,101.658h-2.451v4.086c0,.252,0,.5.018.749a2,2,0,0,0,.141.666,1.1,1.1,0,0,0,.38.476,1.316,1.316,0,0,0,.752.18,3.658,3.658,0,0,0,.627-.057,1.829,1.829,0,0,0,.589-.209v1.559a2.269,2.269,0,0,1-.789.237,5.929,5.929,0,0,1-.75.067,3.426,3.426,0,0,1-1.53-.276,1.872,1.872,0,0,1-.8-.711,2.285,2.285,0,0,1-.3-.979c-.032-.362-.049-.725-.049-1.093v-4.693h-1.976v-1.483h1.976V97.648h1.711v2.527h2.451Z" transform="translate(-267.816 -95.691)" fill="#003b69"/>
      <path id="Path_47" data-name="Path 47" d="M285.741,100.721h1.71v9.008h-1.71Zm-.4-3.23a1.264,1.264,0,1,1,.37.883,1.2,1.2,0,0,1-.37-.883" transform="translate(-265.201 -96.237)" fill="#003b69"/>
      <path id="Path_48" data-name="Path 48" d="M291.408,104.037a3.682,3.682,0,0,0,.209,1.263,2.839,2.839,0,0,0,.589.989,2.751,2.751,0,0,0,.931.646,3.334,3.334,0,0,0,2.47,0,2.738,2.738,0,0,0,.931-.646,2.839,2.839,0,0,0,.589-.989,3.916,3.916,0,0,0,0-2.527,2.82,2.82,0,0,0-.589-.987,2.7,2.7,0,0,0-.931-.646,3.316,3.316,0,0,0-2.47,0,2.713,2.713,0,0,0-.931.646,2.82,2.82,0,0,0-.589.987,3.682,3.682,0,0,0-.209,1.263m-1.824,0a4.592,4.592,0,0,1,.37-1.843,4.818,4.818,0,0,1,1.017-1.5,4.841,4.841,0,0,1,6.8,0,4.865,4.865,0,0,1,1.017,1.5,4.615,4.615,0,0,1,.369,1.843,4.678,4.678,0,0,1-1.386,3.355,4.876,4.876,0,0,1-1.521,1.007,4.964,4.964,0,0,1-3.763,0,4.854,4.854,0,0,1-1.52-1.007,4.686,4.686,0,0,1-1.387-3.355" transform="translate(-263.56 -95.05)" fill="#003b69"/>
      <path id="Path_49" data-name="Path 49" d="M299.208,99.533h1.71v1.387h.037a2.53,2.53,0,0,1,1.121-1.168,3.709,3.709,0,0,1,1.843-.447,3.948,3.948,0,0,1,1.245.2,2.815,2.815,0,0,1,1.046.619,2.993,2.993,0,0,1,.713,1.073,4.129,4.129,0,0,1,.265,1.549v5.8h-1.71v-5.323a3.014,3.014,0,0,0-.171-1.072,1.973,1.973,0,0,0-.455-.721,1.735,1.735,0,0,0-.657-.4,2.428,2.428,0,0,0-.768-.123,2.8,2.8,0,0,0-.989.172,2.051,2.051,0,0,0-.8.541,2.537,2.537,0,0,0-.533.94,4.3,4.3,0,0,0-.19,1.349v4.638h-1.71Z" transform="translate(-259.837 -95.05)" fill="#003b69"/>
    </g>
  </g>
</svg>
