<svg xmlns="http://www.w3.org/2000/svg" width="738.603" height="318.453" viewBox="0 0 6052 2609" shape-rendering="geometricPrecision" text-rendering="geometricPrecision" image-rendering="optimizeQuality" fill-rule="evenodd" clip-rule="evenodd"><defs><style>.fil0{fill:#c00}.fil1{fill:#373435;fill-rule:nonzero}</style></defs><g id="Layer_x0020_1"><path class="fil0" d="M1 0h5793v172H1zm0 1826h5793v172H1z"/><path class="fil1" d="M0 2512v-353h86l51 241 51-241h87v353h-53v-279l-57 279h-55l-57-279v279z"/><path id="1" class="fil1" d="M326 2221v-62h55v62h-55zm0 291v-256h55v256h-55z"/><path id="2" class="fil1" d="M611 2332l-54 12c-4-27-17-41-38-41-13 0-24 6-32 18-9 11-13 31-13 58 0 31 4 52 13 65 8 12 19 19 33 19 10 0 18-4 25-11s11-20 14-38l54 11c-11 62-43 93-95 93-34 0-59-13-75-39s-24-58-24-94c0-44 9-78 27-101 19-23 43-34 73-34 24 0 43 7 59 20 15 13 26 34 33 62z"/><path id="3" class="fil1" d="M698 2512h-54v-256h51v36c8-17 16-28 23-34 7-5 15-8 24-8 12 0 24 4 35 13l-17 59c-9-8-17-11-25-11s-15 3-20 8c-6 6-10 16-13 31-2 15-4 43-4 83v79z"/><path id="4" class="fil1" d="M782 2380c0-25 5-48 14-68 10-21 23-36 39-46 16-11 33-16 53-16 33 0 59 13 78 40 19 26 29 57 29 93 0 26-5 50-15 71s-23 37-39 48-34 16-53 16c-30 0-56-12-76-36s-30-58-30-102zm56 4c0 26 5 45 14 59 10 13 23 20 37 20 13 0 25-7 35-20 10-14 15-33 15-59s-5-45-15-59c-10-13-22-20-36-20s-26 7-36 20c-10 14-14 33-14 59z"/><path id="5" class="fil1" d="M1325 2382l56 22c-9 39-24 68-44 86-20 19-45 28-74 28-37 0-67-15-90-44-27-33-40-78-40-135 0-61 13-108 40-142 23-29 54-44 93-44 32 0 59 11 80 33 16 16 27 39 34 70l-57 17c-3-19-11-33-21-44-11-10-24-15-39-15-21 0-38 9-51 28s-20 49-20 92c0 44 6 76 19 95 13 18 30 28 51 28 15 0 28-6 39-18s19-31 24-57z"/><path id="6" class="fil1" d="M1411 2380c0-25 5-48 14-68 10-21 23-36 39-46 15-11 33-16 53-16 33 0 59 13 78 40 19 26 28 57 28 93 0 26-5 50-14 71-10 21-23 37-39 48s-34 16-53 16c-30 0-56-12-76-36s-30-58-30-102zm55 4c0 26 5 45 15 59 10 13 22 20 36 20s26-7 36-20c10-14 15-33 15-59s-5-45-15-59c-10-13-22-20-36-20s-26 7-36 20c-10 14-15 33-15 59z"/><path id="7" class="fil1" d="M1656 2256h51v35c9-14 19-24 30-31s22-10 35-10 24 3 34 10 18 17 24 31c9-14 19-24 29-31 11-7 22-10 34-10 14 0 26 4 36 10 10 7 18 17 23 30 6 12 8 32 8 58v164h-54v-146c0-26-3-43-7-51-5-9-12-13-22-13-13 0-23 6-30 18-7 11-11 35-11 69v123h-55v-140c0-28-2-46-5-54-3-11-11-16-23-16-8 0-16 3-23 8-6 6-11 14-14 24-3 11-5 28-5 54v124h-55v-256z"/><path id="8" class="fil1" d="M2004 2256h51v35c9-14 19-24 30-31 10-7 22-10 34-10 14 0 25 3 35 10 9 7 17 17 24 31 9-14 19-24 29-31 11-7 22-10 34-10 14 0 26 4 36 10 10 7 18 17 23 30 5 12 8 32 8 58v164h-55v-146c0-26-2-43-6-51-5-9-12-13-23-13-12 0-22 6-29 18-8 11-12 35-12 69v123h-54v-140c0-28-2-46-5-54-4-11-12-16-24-16-8 0-15 3-22 8-7 6-12 14-15 24-3 11-4 28-4 54v124h-55v-256z"/><path id="9" class="fil1" d="M2476 2431l54 11c-7 26-18 45-34 57-15 13-34 19-56 19-30 0-54-10-70-31-20-24-30-58-30-102 0-42 10-77 30-102 16-22 38-33 65-33 29 0 52 11 69 33 19 26 29 63 29 113v8h-137c0 20 5 35 13 47 9 11 19 16 32 16 17 0 29-12 35-36zm3-69c-1-20-5-35-13-45s-17-15-28-15c-12 0-21 5-29 16-8 10-12 25-12 44h82z"/><path id="10" class="fil1" d="M2624 2512h-55v-256h51v36c9-17 16-28 23-34 7-5 15-8 24-8 13 0 24 4 36 13l-17 59c-9-8-18-11-26-11-7 0-14 3-20 8-6 6-10 16-12 31-3 15-4 43-4 83v79z"/><path id="11" class="fil1" d="M2900 2332l-54 12c-4-27-16-41-37-41-14 0-25 6-33 18-8 11-12 31-12 58 0 31 4 52 12 65 8 12 19 19 33 19 10 0 19-4 25-11 7-7 12-20 15-38l54 11c-12 62-43 93-96 93-33 0-58-13-74-39-17-26-25-58-25-94 0-44 9-78 28-101 18-23 42-34 72-34 24 0 44 7 59 20s26 34 33 62z"/><path id="12" class="fil1" d="M2936 2221v-62h54v62h-54zm0 291v-256h54v256h-54z"/><path id="13" class="fil1" d="M3082 2334l-50-10c6-27 16-45 30-57 13-11 33-17 59-17 23 0 41 3 53 10s21 15 26 27c5 11 8 32 8 62l-1 79c0 22 1 39 3 49 1 11 5 23 9 35h-54l-7-28c-9 11-19 20-30 25-10 6-22 9-34 9-20 0-36-7-49-21-13-13-19-32-19-55 0-14 2-27 8-38 5-10 12-19 22-25 9-7 24-13 45-18 26-6 43-11 53-16 0-14-1-24-3-28s-5-8-11-11c-5-3-12-4-22-4s-17 2-23 7c-5 4-10 13-13 25zm72 55c-7 3-18 6-32 10-17 4-28 9-34 15-5 5-7 13-7 21 0 10 2 18 8 25s13 10 22 10c8 0 15-3 23-8s13-12 16-19c3-8 4-21 4-41v-13z"/><path id="14" class="fil1" d="M3256 2512v-353h54v353z"/><path id="15" class="fil1" d="M3653 2382l56 22c-9 39-23 68-43 86-21 19-45 28-75 28-37 0-67-15-90-44-26-33-40-78-40-135 0-61 14-108 40-142 24-29 55-44 94-44 32 0 58 11 80 33 15 16 26 39 34 70l-57 17c-4-19-11-33-22-44-11-10-24-15-38-15-21 0-38 9-52 28-13 19-20 49-20 92 0 44 7 76 20 95 13 18 29 28 50 28 15 0 28-6 39-18s19-31 24-57z"/><path id="16" class="fil1" d="M3739 2380c0-25 5-48 15-68 10-21 22-36 38-46 16-11 34-16 53-16 34 0 60 13 78 40 19 26 29 57 29 93 0 26-5 50-15 71s-23 37-39 48-33 16-52 16c-31 0-56-12-77-36-20-24-30-58-30-102zm56 4c0 26 5 45 15 59 10 13 22 20 36 20s26-7 35-20c10-14 15-33 15-59s-5-45-15-59c-10-13-22-20-36-20s-25 7-35 20c-10 14-15 33-15 59z"/><path id="17" class="fil1" d="M3985 2256h51v35c9-14 19-24 29-31 11-7 23-10 35-10 13 0 25 3 35 10 9 7 17 17 23 31 10-14 19-24 30-31 10-7 22-10 33-10 14 0 27 4 37 10 10 7 18 17 23 30 5 12 8 32 8 58v164h-55v-146c0-26-2-43-7-51-4-9-12-13-22-13-12 0-22 6-29 18-8 11-12 35-12 69v123h-55v-140c0-28-1-46-4-54-4-11-12-16-24-16-8 0-15 3-22 8-7 6-12 14-15 24-3 11-4 28-4 54v124h-55v-256z"/><path id="18" class="fil1" d="M4335 2256h51v38c7-14 16-25 28-32 11-8 23-12 37-12 23 0 43 11 60 34s26 56 26 98c0 44-9 77-26 101-17 23-37 35-61 35-11 0-21-3-30-8-9-6-19-15-30-29v128h-55v-353zm55 124c0 29 4 50 13 64 10 13 21 20 34 20 12 0 23-6 31-19 9-12 13-33 13-62 0-27-4-47-13-60s-20-20-32-20c-13 0-24 7-33 19-9 13-13 32-13 58z"/><path id="19" class="fil1" d="M4561 2380c0-25 5-48 15-68 9-21 22-36 38-46 16-11 34-16 53-16 33 0 59 13 78 40 19 26 29 57 29 93 0 26-5 50-15 71s-23 37-39 48-33 16-52 16c-31 0-57-12-77-36s-30-58-30-102zm56 4c0 26 5 45 15 59 10 13 22 20 36 20s25-7 35-20c10-14 15-33 15-59s-5-45-15-59c-10-13-22-20-36-20s-25 7-35 20c-10 14-15 33-15 59z"/><path id="20" class="fil1" d="M4998 2512h-54v-131c0-26-2-43-4-52s-5-15-11-20-12-7-19-7c-9 0-17 3-25 9-7 6-12 14-15 25s-5 31-5 60v116h-55v-256h51v37c9-14 19-25 30-32 12-7 24-11 38-11 16 0 29 4 40 13 11 8 19 19 23 32 4 14 6 33 6 58v159z"/><path id="21" class="fil1" d="M5168 2431l54 11c-7 26-18 45-34 57-15 13-34 19-56 19-30 0-54-10-70-31-20-24-30-58-30-102 0-42 10-77 30-102 17-22 38-33 65-33 29 0 52 11 69 33 19 26 29 63 29 113v8h-137c0 20 5 35 14 47 8 11 19 16 31 16 17 0 29-12 35-36zm3-69c-1-20-5-35-13-45s-17-15-28-15-21 5-29 16c-8 10-12 25-12 44h82z"/><path id="22" class="fil1" d="M5451 2512h-55v-131c0-26-1-43-3-52s-6-15-12-20c-5-5-12-7-19-7-9 0-17 3-24 9-8 6-13 14-16 25s-5 31-5 60v116h-54v-256h51v37c9-14 19-25 30-32s24-11 37-11c16 0 30 4 41 13 11 8 18 19 22 32 5 14 7 33 7 58v159z"/><path id="23" class="fil1" d="M5595 2256v54h-37v103c0 23 1 35 2 39 2 7 6 10 13 10 5 0 12-2 22-7l5 53c-13 7-27 10-43 10-14 0-25-3-34-10-8-7-14-17-16-29-3-10-4-29-4-57v-112h-25v-54h25v-51l55-39v90h37z"/><path id="24" class="fil1" d="M5608 2439l55-10c5 27 20 40 44 40 13 0 23-2 29-8 7-5 10-11 10-20 0-5-1-10-4-13s-9-6-18-8c-45-12-73-24-86-35-15-14-22-32-22-56s7-43 22-57c15-15 36-22 65-22 27 0 47 5 61 16 15 11 24 28 30 52l-51 12c-5-21-18-31-39-31-14 0-23 2-29 6s-8 9-8 15 2 11 7 15c5 3 22 9 49 17 30 8 51 19 62 31 11 13 16 29 16 50 0 24-8 45-25 61s-40 24-69 24c-27 0-48-7-65-20-17-14-28-33-34-59z"/><path class="fil1" d="M960 508h400l-10 598 316-598h398l-267 982h-248l203-749-395 749h-225l13-749-204 749H693z"/><path id="1" class="fil1" d="M3212 1088l244 80c-38 75-83 137-135 187s-110 88-174 113c-64 26-140 39-228 39-107 0-190-16-250-47-59-31-102-86-130-164-28-77-26-178 7-299 45-163 122-288 232-375s245-131 403-131c124 0 214 25 272 75 57 50 88 127 95 231l-284 59c-1-29-5-51-12-65-11-23-27-41-48-53-21-13-47-19-77-19-69 0-130 28-181 83-39 41-71 105-94 193-30 109-34 183-12 224 23 40 64 60 123 60s107-16 145-49c39-33 73-80 104-142z"/><path id="2" class="fil1" d="M4737 1088l244 80c-38 75-83 137-135 187-53 50-110 88-174 113-64 26-140 39-228 39-107 0-190-16-250-47-59-31-102-86-130-164-28-77-26-178 7-299 45-163 122-288 232-375s245-131 403-131c123 0 214 25 271 75s89 127 95 231l-283 59c-2-29-5-51-12-65-11-23-27-41-48-53-21-13-47-19-77-19-69 0-130 28-181 83-39 41-71 105-95 193-29 109-33 183-11 224 22 40 63 60 123 60 58 0 107-16 145-49 39-33 73-80 104-142z"/><circle class="fil0" cx="453" cy="999" r="176"/><circle class="fil0" cx="2256" cy="999" r="176"/><circle class="fil0" cx="3771" cy="999" r="176"/><circle class="fil0" cx="5335" cy="999" r="176"/><path class="fil1" d="M5955 1821c16 0 32 4 48 12 15 8 27 20 36 36 8 15 13 32 13 48 0 17-5 33-13 48-9 16-20 28-36 36-15 9-31 13-48 13s-33-4-48-13c-15-8-27-20-36-36-8-15-13-31-13-48 0-16 5-33 13-48 9-16 21-28 37-36 15-8 31-12 47-12zm0 16c-13 0-27 3-39 10-13 7-23 17-31 30-7 13-11 26-11 40s4 28 11 40c7 13 17 23 30 30s26 11 40 11 27-4 40-11 23-17 30-30c7-12 11-26 11-40s-4-27-11-40-17-23-30-30-26-10-40-10zm-42 134v-104h36c12 0 21 1 26 3 6 2 10 5 13 10 3 4 5 10 5 15 0 7-3 14-8 20-6 5-13 8-22 9 4 2 7 4 9 6 4 4 9 11 15 20l13 21h-20l-10-17c-7-13-13-21-17-24-3-2-8-3-14-3h-9v44h-17zm17-59h20c10 0 16-1 20-4 3-3 5-7 5-12 0-3-1-5-2-8-2-2-4-4-8-5-3-1-8-2-16-2h-19v31z"/></g></svg>