<svg height="71" width="256" xmlns="http://www.w3.org/2000/svg"><g fill="none" fill-rule="evenodd"><path d="M21.976 55.393h4.69V33.167a9.133 9.133 0 00-9.161-9.166H4.079A4.072 4.072 0 000 28.081v27.312h4.687a.771.771 0 00.771-.772l.002-25.472h12.045c2.071 0 3.702 1.695 3.702 3.705v21.767c0 .425.343.77.769.772m100.704-8.852c0 2.01-1.63 3.706-3.702 3.706h-12.046l.001-21.097h12.045c2.072 0 3.702 1.695 3.702 3.704zm-3.702-22.54h-15.495c-1.13 0-2.008.879-2.008 1.945l-.002 44.733h4.687a.771.771 0 00.771-.771l.001-14.513h12.046a9.133 9.133 0 009.16-9.167v-13.06a9.133 9.133 0 00-9.16-9.167zm60.233 5.148c-2.072 0-3.703 1.695-3.703 3.705l.001 21.767c0 .425-.344.77-.769.772h-4.69V33.167a9.133 9.133 0 019.161-9.166h6.282v4.375a.771.771 0 01-.769.772zm19.19-4.375a.772.772 0 00-.768-.772l-4.69-.001V54.62c0 .425.344.77.769.772h4.689zm15.873 25.469c-2.071 0-3.702-1.695-3.702-3.704V43.96c0-2.009 1.631-3.704 3.702-3.704h11.23l-.001 9.987zM221.802 24l.001.002h-13.218v4.455c0 .376.313.69.69.69l12.527.001c2.072 0 3.703 1.696 3.703 3.706v2.253h-11.231a9.134 9.134 0 00-9.161 9.167v1.951a9.134 9.134 0 009.161 9.167h14.679c1.13 0 2.008-.879 2.008-1.945l.002-20.28A9.134 9.134 0 00221.802 24z" fill="#1a676c"/><path d="M198.402 16.711a2.73 2.73 0 11-5.458 0 2.73 2.73 0 015.458 0" fill="#db5432"/><path d="M43.459 55.393h16.187v-4.455a.696.696 0 00-.69-.69l-15.496-.001c-2.071 0-3.702-1.696-3.702-3.706v-4.468l19.575-.001c1.505 0 1.631-.879 1.631-1.945v-6.959a9.133 9.133 0 00-9.161-9.166H43.46a9.133 9.133 0 00-9.161 9.166v13.06a9.134 9.134 0 009.161 9.167m12.046-18.471H39.759l-.001-4.069c0-2.01 1.631-3.705 3.702-3.705h8.343c2.071 0 3.703 1.695 3.703 3.705zm89.435 18.469h16.188v-4.455a.697.697 0 00-.691-.69l-15.496-.001c-2.071 0-3.702-1.696-3.702-3.706v-4.468l19.574-.001c1.506 0 1.632-.879 1.632-1.945v-6.959a9.133 9.133 0 00-9.161-9.166h-8.343a9.133 9.133 0 00-9.16 9.166l-.001 1.68V44.97l.001 1.258a9.133 9.133 0 009.16 9.167m12.045-18.471h-15.746l-.001-4.069c0-2.01 1.631-3.705 3.702-3.705h8.343c2.071 0 3.703 1.695 3.703 3.705z" fill="#1a676c"/><path d="M79.804 37.789l-6.391-12.544c-.3-.585-.516-1.244-1.698-1.244h-4.302c-.392 0-.867.251-.576.856.046.096 7.551 14.839 7.551 14.839s-7.505 14.743-7.551 14.84c-.291.605.184.856.576.856h4.302c1.182 0 1.398-.659 1.698-1.245.279-.545 5.997-11.77 6.391-12.543.173-.34.604-1.193.604-1.908 0-.714-.431-1.567-.604-1.907m8.257 1.907s7.505-14.743 7.552-14.839c.29-.605-.185-.856-.577-.856h-4.301c-1.183 0-1.399.659-1.699 1.244l-6.391 12.544c-.173.34-.604 1.193-.604 1.907 0 .715.431 1.568.604 1.908.394.773 6.112 11.998 6.391 12.543.3.586.516 1.245 1.699 1.245h4.301c.392 0 .867-.251.577-.856-.047-.097-7.552-14.84-7.552-14.84" fill="#db5432"/><path d="M236.793 29.756c.138-.233.27-.465.395-.698s.24-.468.346-.704h.849c-.188.369-.382.725-.583 1.071-.201.345-.413.692-.636 1.041v1.307h-.77v-1.297a28.747 28.747 0 01-.638-1.046 21.181 21.181 0 01-.585-1.076h.893c.105.236.218.471.34.704.121.233.251.465.389.698m2.008 2.017v-3.419h2.309V29h-1.539v.671h1.366v.632h-1.366v.824h1.652v.646zm4.359-2.644c-.018.05-.042.117-.075.202l-.114.297a34.87 34.87 0 01-.141.369c-.052.135-.106.276-.159.424h.977a23.785 23.785 0 00-.292-.796l-.116-.296a9.083 9.083 0 00-.08-.2zm.925 2.644a13.158 13.158 0 00-.123-.366l-.131-.374h-1.335l-.13.375c-.044.125-.084.247-.121.365h-.799c.128-.368.25-.709.365-1.021a34.323 34.323 0 01.666-1.67c.108-.249.219-.491.334-.728h.73a24.545 24.545 0 01.661 1.515c.111.276.224.57.34.883.115.312.238.653.367 1.021zm2.308-2.802a2.225 2.225 0 00-.276.015v.927h.217c.29 0 .497-.036.622-.108.125-.073.187-.196.187-.37 0-.168-.063-.287-.19-.358-.126-.071-.313-.106-.56-.106zm-.044-.656c.513 0 .906.091 1.179.274.272.182.409.466.409.85 0 .241-.054.435-.165.585-.11.15-.268.267-.476.353.069.085.141.183.217.293a7.965 7.965 0 01.439.721c.069.129.134.257.192.382h-.86l-.191-.34a6.45 6.45 0 00-.198-.336 12.024 12.024 0 00-.2-.309 3.532 3.532 0 00-.198-.263h-.38v1.248h-.77v-3.369c.168-.033.341-.056.521-.07.18-.012.34-.019.481-.019zm3.221 2.871c.108 0 .198-.009.269-.027s.128-.043.169-.074a.241.241 0 00.089-.111.389.389 0 00.026-.144c0-.111-.053-.204-.158-.278-.106-.074-.287-.154-.543-.239a4.125 4.125 0 01-.335-.136c-.113-.051-.212-.115-.301-.192s-.161-.171-.218-.281a.886.886 0 01-.083-.403.925.925 0 01.34-.749 1.15 1.15 0 01.394-.205 1.77 1.77 0 01.524-.072 2.11 2.11 0 011.011.237l-.222.607a2.171 2.171 0 00-.318-.131 1.415 1.415 0 00-.422-.056c-.184 0-.317.025-.397.076-.081.051-.121.129-.121.234 0 .063.015.115.044.158.03.043.071.081.126.116s.117.066.188.094c.07.028.148.056.234.086.178.066.332.131.464.195.131.064.24.139.328.224a.821.821 0 01.194.301c.043.116.065.255.065.419 0 .32-.113.567-.336.743-.224.176-.561.264-1.011.264a2.805 2.805 0 01-.732-.094 1.948 1.948 0 01-.243-.083 2.084 2.084 0 01-.17-.084l.217-.612c.103.056.228.106.378.15.15.045.333.067.55.067" fill="#1a676c"/><path d="M255.404 3.858v16.473l-7.131 3.633c-.915.467-3.218 1.628-5.142 1.628-1.926 0-4.228-1.161-5.143-1.628l-6.823-3.476V3.858c0-2.006 1.629-3.698 3.696-3.698h16.848c2.067 0 3.695 1.692 3.695 3.698m-6.776 10.594a3.962 3.962 0 00-3.982-3.969h-3.259V7.281l5.743-.001a.586.586 0 00.586-.586V5.053h-7.98a.585.585 0 00-.585.585v6.488c0 .324.263.586.586.586h4.909c.901 0 1.61.734 1.61 1.603v.503a1.61 1.61 0 01-1.61 1.604h-5.494v2.229h5.494a3.963 3.963 0 003.982-3.969z" fill="#cdac3c"/></g></svg>