<svg id="Layer_1" data-name="Layer 1" xmlns="http://www.w3.org/2000/svg" viewBox="0 0 171.68 52.25"><defs><style>.cls-1{fill:#307472;}</style></defs><title>Semtech-logo-color</title><path class="cls-1" d="M95,34c-.55,2.31,1.89,2.65,3.26,2.82,2.5.3,6.47.32,9.26,1.27a5.46,5.46,0,0,1,4,4.29V26.76H103c-.81.75-4,2.54-5.18,3.65C95.43,32.58,95.07,33.56,95,34" transform="translate(-13.37 -26.76)"/><path class="cls-1" d="M103.38,49.25c3.46-3.7,2.43-7.37-3-7.84-2-.17-4.7-.47-6-.59-.35,0-2.79,0-3.65-1.38v21h.05c2.91-1.79,11.35-9.94,12.55-11.22" transform="translate(-13.37 -26.76)"/><path class="cls-1" d="M101.64,26.76H90.78V37a17,17,0,0,1,3.62-5.11,27.86,27.86,0,0,1,7.24-5.09" transform="translate(-13.37 -26.76)"/><path class="cls-1" d="M111.48,45a19.15,19.15,0,0,1-3,7.06,46.28,46.28,0,0,1-7.55,8.4h10.51Z" transform="translate(-13.37 -26.76)"/><path d="M19.68,74.07c.06,1.78,1.33,2.19,4.28,2.19,3.73,0,4.31-.85,4.31-1.47,0-.93-1.51-1.24-4-1.55l-3.1-.39c-3.58-.44-7.34-1.3-7.34-4,0-3.45,4.93-4.66,9.9-4.66,7.94,0,10.19,1.59,10.4,4.39H28C27.82,67.18,26,67,24.12,67c-2.77,0-4,.6-4,1.38,0,.95,2,1.2,4.3,1.51l2.92.39c4,.52,7.22,1.36,7.22,4.13,0,3.92-6.11,4.64-11,4.64-8.76,0-10.23-2.45-10.23-4.94Z" transform="translate(-13.37 -26.76)"/><polygon points="23.19 37.81 41.84 37.81 41.84 40.71 29.51 40.71 29.51 43.33 41.18 43.33 41.18 46.22 29.51 46.22 29.51 48.99 42.11 48.99 42.11 51.89 23.19 51.89 23.19 37.81"/><polygon points="44.53 37.81 53.48 37.81 59.37 48.27 65.59 37.81 74.23 37.81 74.23 51.89 68.77 51.89 68.77 40.41 68.72 40.41 62.11 51.89 56.13 51.89 49.49 40.41 49.44 40.41 49.44 51.89 44.53 51.89 44.53 37.81"/><polygon points="84.55 40.71 76.18 40.71 76.18 37.81 99.23 37.81 99.23 40.71 90.86 40.71 90.86 51.89 84.55 51.89 84.55 40.71"/><polygon points="101.47 37.81 120.12 37.81 120.12 40.71 107.79 40.71 107.79 43.33 119.46 43.33 119.46 46.22 107.79 46.22 107.79 48.99 120.39 48.99 120.39 51.89 101.47 51.89 101.47 37.81"/><path d="M153.33,69.21c-.34-1.55-2.35-2.09-4.81-2.09-4.23,0-6.27,1.86-6.27,4.42s1.7,4.57,6.08,4.57c2.47,0,4.73-.54,4.94-2.25h6.83C159.83,78,154.41,79,147.68,79s-12.11-2.16-12.11-7.37,5.19-7.41,13.16-7.41c5.68,0,11.16,1.27,11.26,5Z" transform="translate(-13.37 -26.76)"/><polygon points="148.37 37.81 154.69 37.81 154.69 43.38 165.36 43.38 165.36 37.81 171.68 37.81 171.68 51.89 165.36 51.89 165.36 46.27 154.69 46.27 154.69 51.89 148.37 51.89 148.37 37.81"/></svg>