<?xml version="1.0" encoding="UTF-8"?>
<svg width="244px" height="79px" viewBox="0 0 244 79" version="1.1" xmlns="http://www.w3.org/2000/svg" xmlns:xlink="http://www.w3.org/1999/xlink">
    <title>Group</title>
    <defs>
        <polygon id="path-1" points="0 0 46.607 0 46.607 37.755 0 37.755"></polygon>
        <polygon id="path-3" points="0 7.10542736e-15 54.286 7.10542736e-15 54.286 39.81 0 39.81"></polygon>
    </defs>
    <g id="Page-1" stroke="none" stroke-width="1" fill="none" fill-rule="evenodd">
        <g id="Group" transform="translate(0.060000, 0.675189)">
            <g id="Group-3" transform="translate(0.000000, 29.782811)">
                <mask id="mask-2" fill="white">
                    <use xlink:href="#path-1"></use>
                </mask>
                <g id="Clip-2"></g>
                <path d="M41.86,0 C41.035,0 40.296,0.491 39.976,1.252 L27.886,30.063 L25.597,0 L22.012,0 C21.201,0 20.466,0.48 20.141,1.224 L7.593,29.934 L5.505,0 L1.982,0 C1.407,0 0.856,0.244 0.469,0.671 C0.083,1.097 -0.107,1.67 -0.05,2.243 L3.45,37.755 L7.557,37.755 C8.368,37.755 9.102,37.275 9.428,36.533 L21.831,8.259 L24.226,37.755 L28.349,37.755 C29.152,37.755 29.884,37.281 30.213,36.548 L46.607,0 L41.86,0" id="Fill-1" fill="#4B2B6D" mask="url(#mask-2)"></path>
            </g>
            <path d="M63.601,50.8808108 C63.601,57.1618108 60.247,63.8358108 54.03,63.8358108 C47.693,63.8358108 46.362,59.4088108 46.362,55.6938108 C46.362,49.4138108 49.717,42.7378108 55.934,42.7378108 C62.271,42.7378108 63.601,47.1658108 63.601,50.8808108 Z M55.881,38.4548108 C47.394,38.4548108 41.233,45.7048108 41.233,55.6938108 C41.233,63.4738108 46.037,68.1198108 54.083,68.1198108 C62.601,68.1198108 68.783,60.8708108 68.783,50.8808108 C68.783,43.1008108 63.96,38.4548108 55.881,38.4548108 L55.881,38.4548108 Z" id="Fill-4" fill="#4B2B6D"></path>
            <path d="M79.206,28.2488108 C78.214,28.2488108 77.37,28.9568108 77.197,29.9338108 L70.543,67.5388108 L73.972,67.5388108 C74.964,67.5388108 75.809,66.8308108 75.981,65.8538108 L82.635,28.2488108 L79.206,28.2488108" id="Fill-5" fill="#4B2B6D"></path>
            <g id="Group-9" transform="translate(97.957000, 38.454811)">
                <mask id="mask-4" fill="white">
                    <use xlink:href="#path-3"></use>
                </mask>
                <g id="Clip-7"></g>
                <path d="M15.203,12.499 L15.201,12.498 C14.851,12.382 14.498,12.272 14.149,12.162 C11.332,11.277 8.9,10.512 8.9,8.143 C8.9,5.871 11.27,4.283 14.663,4.283 C18.354,4.283 22.138,6.191 23.211,6.776 L23.495,6.931 L26.096,3.379 L25.745,3.171 C23.269,1.709 18.84,7.10542736e-15 14.505,7.10542736e-15 C8.153,7.10542736e-15 3.717,3.479 3.717,8.46 C3.717,13.936 8.709,15.531 12.013,16.586 L12.841,16.848 C16.193,17.903 18.841,18.735 18.841,21.256 C18.841,23.964 15.755,25.381 12.707,25.381 C8.93,25.381 4.698,23.198 3.055,22.258 L2.777,22.1 L0,25.634 L0.346,25.853 C1.759,26.748 6.828,29.665 12.707,29.665 C19.507,29.665 24.075,26.137 24.075,20.887 C24.075,15.856 20.23,14.174 15.203,12.499" id="Fill-6" fill="#4B2B6D" mask="url(#mask-4)"></path>
                <path d="M48.999,10.682 C48.999,20.162 44.585,25.276 40.431,25.276 C37.073,25.276 34.297,23.059 32.525,21.141 L34.691,8.713 C37.414,6.512 40.362,4.389 43.816,4.389 C48.099,4.389 48.999,7.811 48.999,10.682 Z M44.979,7.10542736e-15 C41.961,7.10542736e-15 38.893,1.185 35.625,3.618 L36.168,0.582 L32.736,0.582 C31.746,0.582 30.901,1.29 30.728,2.265 L24.074,39.87 L27.505,39.87 C28.496,39.87 29.339,39.163 29.513,38.188 L31.744,25.623 C33.509,27.171 36.706,29.666 41.225,29.666 C48.915,29.666 54.286,21.685 54.286,10.258 C54.286,0.74 47.163,7.10542736e-15 44.979,7.10542736e-15 L44.979,7.10542736e-15 Z" id="Fill-8" fill="#4B2B6D" mask="url(#mask-4)"></path>
            </g>
            <path d="M159.715,52.0438108 C161.022,46.3638108 165.022,42.5788108 169.781,42.5788108 C172.864,42.5788108 174.857,44.0108108 174.857,46.2278108 C174.857,49.9788108 170.444,52.0438108 162.43,52.0438108 L159.715,52.0438108 Z M162.06,55.6398108 C173.92,55.6398108 179.933,52.4378108 179.933,46.1228108 C179.933,41.5368108 175.938,38.4548108 169.992,38.4548108 C160.621,38.4548108 154.076,45.5648108 154.076,55.7468108 C154.076,63.6098108 158.007,68.1208108 164.863,68.1208108 C170.279,68.1208108 175.502,65.2718108 177.731,64.0558108 L178.052,63.8798108 L176.014,60.0598108 L175.689,60.2298108 C175.454,60.3528108 175.2,60.4898108 174.927,60.6338108 C172.499,61.9308108 168.828,63.8898108 165.498,63.8898108 C160.383,63.8898108 159.309,59.5478108 159.309,55.9048108 L159.309,55.6398108 L162.06,55.6398108 L162.06,55.6398108 Z" id="Fill-10" fill="#4B2B6D"></path>
            <path d="M186.992,52.0438108 C188.298,46.3638108 192.298,42.5788108 197.056,42.5788108 C200.14,42.5788108 202.132,44.0108108 202.132,46.2278108 C202.132,49.9788108 197.718,52.0438108 189.706,52.0438108 L186.992,52.0438108 Z M189.336,55.6398108 C201.195,55.6398108 207.209,52.4378108 207.209,46.1228108 C207.209,41.5368108 203.213,38.4548108 197.268,38.4548108 C187.896,38.4548108 181.351,45.5648108 181.351,55.7468108 C181.351,63.6098108 185.284,68.1208108 192.138,68.1208108 C197.555,68.1208108 202.777,65.2718108 205.006,64.0558108 L205.329,63.8798108 L203.292,60.0598108 L202.965,60.2298108 C202.73,60.3528108 202.475,60.4898108 202.204,60.6338108 C199.774,61.9308108 196.103,63.8898108 192.773,63.8898108 C187.659,63.8898108 186.586,59.5478108 186.586,55.9048108 L186.586,55.6398108 L189.336,55.6398108 L189.336,55.6398108 Z" id="Fill-11" fill="#4B2B6D"></path>
            <path d="M229.982,47.0308108 L227.92,58.6238108 C224.984,61.2878108 221.744,63.7308108 217.952,63.7308108 C214.041,63.7308108 213.457,59.7888108 213.457,57.4378108 C213.457,50.2638108 216.799,42.8428108 222.393,42.8428108 C224.9,42.8428108 227.383,44.2128108 229.982,47.0308108 Z M235.003,28.2488108 C234.012,28.2488108 233.168,28.9578108 232.996,29.9348108 L230.765,42.5918108 C229.005,41.0048108 225.841,38.4548108 221.6,38.4548108 C213.692,38.4548108 208.17,46.4568108 208.17,57.9148108 C208.17,62.8478108 210.42,68.1198108 216.736,68.1198108 C221.036,68.1198108 224.768,65.6908108 226.981,63.8478108 L226.343,67.5388108 L229.771,67.5388108 C230.762,67.5388108 231.607,66.8308108 231.779,65.8548108 L238.433,28.2488108 L235.003,28.2488108 L235.003,28.2488108 Z" id="Fill-12" fill="#4B2B6D"></path>
            <path d="M240.748,63.0028108 C240.748,63.1928108 240.677,63.3378108 240.531,63.4488108 C240.378,63.5638108 240.161,63.6228108 239.889,63.6228108 L239.707,63.6228108 L239.707,62.5708108 L239.937,62.5708108 C240.348,62.5708108 240.528,62.6238108 240.606,62.6698108 C240.702,62.7268108 240.748,62.8348108 240.748,63.0028108 Z M242.11,65.7358108 L240.827,64.0448108 C241.067,63.9088108 241.245,63.7608108 241.357,63.6058108 C241.492,63.4188108 241.559,63.1858108 241.559,62.9128108 C241.559,62.4988108 241.361,62.2078108 240.968,62.0458108 C240.789,61.9698108 240.489,61.9328108 240.052,61.9328108 L238.931,61.9328108 L238.931,65.7608108 L239.707,65.7608108 L239.707,64.2598108 L240.042,64.2598108 L241.147,65.7158108 L241.18,65.7608108 L242.085,65.7608108 C241.427,66.4098108 240.492,66.6758108 239.577,66.4698108 C238.596,66.2508108 237.79,65.4448108 237.571,64.4638108 C237.365,63.5428108 237.634,62.6008108 238.292,61.9448108 C238.949,61.2878108 239.89,61.0168108 240.812,61.2238108 C241.793,61.4438108 242.598,62.2488108 242.818,63.2298108 C243.022,64.1448108 242.756,65.0798108 242.11,65.7358108 Z M242.599,61.4428108 C241.957,60.7998108 241.102,60.4468108 240.195,60.4468108 C239.286,60.4468108 238.431,60.7998108 237.791,61.4428108 C237.148,62.0848108 236.794,62.9388108 236.794,63.8468108 C236.794,64.7558108 237.148,65.6098108 237.79,66.2508108 C238.432,66.8938108 239.286,67.2478108 240.195,67.2478108 C241.102,67.2478108 241.956,66.8938108 242.598,66.2518108 C243.241,65.6098108 243.595,64.7558108 243.595,63.8468108 C243.595,62.9388108 243.241,62.0848108 242.599,61.4428108 L242.599,61.4428108 Z" id="Fill-13" fill="#4B2B6D"></path>
            <path d="M100.552,39.0368108 L93.151,39.0368108 L93.76,35.6188108 C94.155,33.6408108 94.98,32.7958108 96.517,32.7958108 C97.574,32.7958108 99.78,33.3748108 100.799,33.6798108 L101.086,33.7658108 L103.125,30.0698108 L102.735,29.9148108 C101.294,29.3388108 97.974,28.2488108 95.723,28.2488108 C91.643,28.2488108 89.526,30.4128108 88.644,35.4808108 L88.011,39.0368108 L84.254,39.0368108 L83.546,43.1608108 L87.297,43.1608108 L84.017,61.7258108 L82.971,67.5388108 L86.402,67.5388108 C87.393,67.5388108 88.238,66.8308108 88.41,65.8558108 L89.139,61.8558108 L92.438,43.1608108 L99.842,43.1608108 L100.552,39.0368108" id="Fill-14" fill="#4B2B6D"></path>
            <g id="Group-18" transform="translate(108.250120, 0.000000)" fill="#4B2B6D">
                <path d="M115.28588,24.4148108 L63.5448801,0.332810801 C63.0988801,0.124810801 62.6388801,0.592810801 62.8528801,1.0358108 L70.3598801,16.5698108 C70.4998801,16.8588108 70.2948801,17.1968108 69.9738801,17.2078108 L0.173880084,19.6878108 C-0.0561199161,19.6958108 -0.0591199161,20.0378108 0.171880084,20.0488108 L81.6938801,24.0148108 C81.8848801,24.0228108 82.0188801,23.8278108 81.9418801,23.6518108 L77.9598801,14.6598108 C77.8158801,14.3348108 78.1178801,13.9908108 78.4598801,14.0908108 L115.11488,24.8668108 C115.40188,24.9518108 115.55688,24.5408108 115.28588,24.4148108" id="Fill-15"></path>
                <path d="M83.6878801,7.7388108 L98.2258801,14.4598108 C98.4608801,14.5688108 98.6548801,14.2488108 98.4488801,14.0918108 L80.0838801,0.0468108011 C79.8988801,-0.0941891989 79.6498801,0.108810801 79.7518801,0.317810801 L83.0248801,7.0868108 C83.1638801,7.3738108 83.3978801,7.6048108 83.6878801,7.7388108" id="Fill-17"></path>
            </g>
            <path d="M216.502,29.3238108 C216.395,29.3788108 216.276,29.4048108 216.156,29.3978108 L166.948,26.6948108 L148.349,25.6438108 C148.124,25.7138108 148.162,26.0438108 148.397,26.0618108 L169.671,28.6398108 C169.671,28.6398108 169.642,28.6128108 169.593,28.5698108 C169.65,28.6138108 169.68,28.6398108 169.671,28.6398108 L217.434,33.2708108 C217.605,33.2878108 217.774,33.2178108 217.883,33.0848108 L223.628,26.0728108 C223.77,25.8998108 223.574,25.6578108 223.376,25.7598108 L216.502,29.3238108" id="Fill-19" fill="#4B2B6D"></path>
        </g>
    </g>
</svg>