<?xml version="1.0" encoding="utf-8"?>
<!-- Generator: Adobe Illustrator 26.0.3, SVG Export Plug-In . SVG Version: 6.00 Build 0)  -->
<svg version="1.1" id="Layer_1" xmlns="http://www.w3.org/2000/svg" xmlns:xlink="http://www.w3.org/1999/xlink" x="0px" y="0px"
	 viewBox="0 0 200 200" style="enable-background:new 0 0 200 200;" xml:space="preserve">
<style type="text/css">
	.st0{fill:#D71921;}
</style>
<g>
	<g>
		<path d="M99.6,22c44.86,0.35,78.8,34.48,78.65,77.96c-0.16,43.68-34.21,77.37-78.64,77.48c-42.84,0.1-78.01-33.49-78.02-77.68
			C21.58,55.37,57.04,22.11,99.6,22z M157.78,99.9c0.02-31.99-24.51-57.35-58.29-57.51c-33.14-0.15-57.53,26.68-57.47,57.46
			c0.06,31.02,24.76,57.56,57.64,57.3C133.34,156.88,157.68,131.63,157.78,99.9z"/>
		<path class="st0" d="M99.48,133.3c-18.8-0.01-33.93-15-33.92-33.59c0.01-18.52,15.29-33.5,34-33.6
			c17.78-0.1,34.72,14.72,34.82,33.47C134.48,118.56,117.32,133.76,99.48,133.3z"/>
	</g>
</g>
</svg>
