<?xml version="1.0" encoding="utf-8"?>
<!-- Generator: Adobe Illustrator 26.0.3, SVG Export Plug-In . SVG Version: 6.00 Build 0)  -->
<svg version="1.1" id="Layer_1" xmlns="http://www.w3.org/2000/svg" xmlns:xlink="http://www.w3.org/1999/xlink" x="0px" y="0px"
	 viewBox="0 0 200 200" style="enable-background:new 0 0 200 200;" xml:space="preserve">
<style type="text/css">
	.st0{fill:#D71921;}
</style>
<g>
	<g>
		<g>
			<path d="M90.8,86.2c5.5,0,9.7,4.2,9.7,9.6c0,5.4-4.2,9.5-9.7,9.5c-5.3,0-9.6-4.1-9.6-9.5C81.2,90.3,85.5,86.2,90.8,86.2z
				 M97.9,95.7c0-3.9-3-7-7.2-7.1c-4.1,0-7.1,3.3-7.1,7.1c0,3.8,3,7.1,7.1,7C94.9,102.7,97.9,99.6,97.9,95.7z"/>
			<path class="st0" d="M90.7,99.8c-2.3,0-4.2-1.8-4.2-4.1c0-2.3,1.9-4.1,4.2-4.1c2.2,0,4.3,1.8,4.3,4.1C95,98,92.9,99.9,90.7,99.8z
				"/>
		</g>
	</g>
	<g>
		<path d="M26.8,92.6c0,3.6-1.1,6.6-3.3,8.9c-2.2,2.3-5,3.5-8.5,3.5H6V79.8h8.5c4,0,7,1.2,9.2,3.7C25.7,85.8,26.8,88.8,26.8,92.6z
			 M20.8,92.4c0-2.1-0.5-3.8-1.5-5.2c-1.1-1.6-2.6-2.3-4.4-2.3h-2.8V100h2.9c1.8,0,3.3-0.8,4.4-2.4C20.3,96.2,20.8,94.5,20.8,92.4z"
			/>
		<path d="M36.1,84.5h-5.5v-5.1h5.5V84.5z M36.1,105.1h-5.5v-19h5.5V105.1z"/>
		<path d="M57.5,98.2c0.1,0.4,0.1,0.7,0.1,1.1c0,1.8-0.8,3.3-2.4,4.4c-1.6,1.2-3.6,1.8-5.9,1.8c-1,0-2-0.1-3-0.3
			c-1.3-0.3-2.3-0.7-3.2-1.3c-1-0.7-1.7-1.6-2-2.7l-0.3-1.2l4.5-0.6l0.2,0.7c0.2,0.6,0.6,1,1.4,1.3c0.7,0.3,1.6,0.5,2.5,0.5
			c0.9,0,1.7-0.1,2.4-0.4c0.7-0.3,1-0.8,1-1.3c0-0.1,0-0.2,0-0.2c-0.1-0.6-0.7-1-1.8-1.2c-1.1-0.2-2.1-0.3-3.2-0.5
			c-1.4-0.3-2.4-0.5-2.8-0.7c-0.9-0.4-1.7-0.9-2.3-1.7c-0.4-0.6-0.7-1.1-0.9-1.6c-0.2-0.5-0.3-1.1-0.3-1.8c0-2.1,0.8-3.6,2.4-4.7
			c1.4-0.9,3.2-1.4,5.3-1.4c2.2,0,3.9,0.4,5,1.3c0.9,0.7,1.8,1.9,2.5,3.7l-3.9,1.1l-0.2-0.7c-0.2-0.6-0.6-1-1.3-1.3
			c-0.7-0.3-1.4-0.5-2.2-0.5c-0.8,0-1.4,0.1-1.9,0.4c-0.5,0.3-0.8,0.7-0.8,1.2c0,0.1,0,0.3,0.1,0.5c0.2,0.5,0.8,0.8,1.9,1.1
			c0.4,0.1,1.5,0.3,3.4,0.6c1.4,0.2,2.5,0.5,3.1,0.8c0.8,0.4,1.5,1,1.9,1.7C57,96.3,57.3,97.1,57.5,98.2z"/>
		<path d="M78.2,93.2l-5.3,0.2c-0.1-1.2-0.3-1.9-0.5-2.3c-0.4-0.7-1.2-1-2.4-1c-1.2,0-2,0.6-2.6,1.8c-0.4,1-0.7,2.2-0.7,3.6
			c0,0.2,0,0.3,0,0.6c0,0.2,0,0.4,0,0.7c0.1,1.3,0.3,2.3,0.6,2.8c0.4,0.9,1.3,1.3,2.4,1.3c0.9,0,1.6-0.3,2.2-0.9
			c0.6-0.6,0.9-1.3,0.9-2.3l5.2,0.3c-0.4,2.3-1.2,4-2.5,5.2c-1.4,1.4-3.4,2.1-5.9,2.1c-2.6,0-4.7-0.8-6.4-2.4
			c-1.8-1.7-2.7-3.9-2.7-6.6c0-2.8,0.8-5.2,2.4-7.2c1.7-2.1,4-3.2,6.7-3.2c1.9,0,3.5,0.4,4.8,1.1c1.1,0.6,1.9,1.5,2.5,2.7
			C77.5,90.6,77.9,91.8,78.2,93.2z"/>
	</g>
	<g>
		<path d="M117.2,86.1l-4.7,19h-4.9l-5.7-19h5.3l3.1,11.1l2.6-11.1H117.2z"/>
		<path d="M137.5,96.5h-12v1.6c0,0.9,0.4,1.7,1.1,2.4c0.7,0.7,1.6,1,2.5,1c0.9,0,1.6-0.3,2.3-0.9c0.6-0.5,0.9-1,0.9-1.4v-0.6
			l5.1,0.3l-0.1,0.4c-0.6,1.9-1.6,3.3-2.9,4.4c-1.5,1.2-3.4,1.8-5.7,1.8c-2.6,0-4.8-0.9-6.5-2.8c-1.7-1.8-2.5-4-2.5-6.6
			c0-2.8,0.7-5.1,2.2-7.1c1.7-2.2,3.9-3.3,6.8-3.3c2.6,0,4.7,0.9,6.4,2.7c1.7,1.8,2.5,4.1,2.5,6.8L137.5,96.5z M131.9,93.3
			c0-0.2,0.1-0.4,0.1-0.7c0-0.9-0.3-1.6-0.8-2.2c-0.6-0.7-1.3-1-2.3-1c-0.9,0-1.7,0.3-2.4,1c-0.7,0.7-1.1,1.5-1.1,2.4
			c0,0.2,0,0.4,0,0.6H131.9z"/>
		<path d="M151.2,91.5c-0.8,0-1.4,0-1.7,0.1c-0.5,0.1-1,0.4-1.4,0.8c-0.5,0.5-0.9,1.3-1.2,2.3c-0.2,1-0.4,2.1-0.4,3.3v7.1h-5.3v-19
			h5.1v3.8c0.1-0.2,0.1-0.5,0.3-0.8c0.1-0.3,0.2-0.5,0.3-0.6c0.7-1.1,1.3-1.8,1.8-2.2c0.5-0.4,1-0.6,1.5-0.6h1V91.5z"/>
		<path d="M172.6,105.1h-18V79.8h18v5.1h-12.1v5h9.4v4.9h-9.5v5.3h12.2V105.1z"/>
		<path d="M194,105.1h-18V79.8h18v5.1h-12.1v5h9.4v4.9h-9.5v5.3H194V105.1z"/>
	</g>
</g>
</svg>
