<?xml version="1.0" encoding="utf-8"?>
<!-- Generator: Adobe Illustrator 26.0.3, SVG Export Plug-In . SVG Version: 6.00 Build 0)  -->
<svg version="1.1" id="Layer_1" xmlns="http://www.w3.org/2000/svg" xmlns:xlink="http://www.w3.org/1999/xlink" x="0px" y="0px"
	 viewBox="0 0 200 200" style="enable-background:new 0 0 200 200;" xml:space="preserve">
<style type="text/css">
	.st0{fill:#D71921;}
</style>
<g>
	<g>
		<g>
			<path d="M90.4,84.8c5.5,0,9.6,4.2,9.6,9.5s-4.2,9.5-9.6,9.5c-5.2,0-9.5-4.1-9.5-9.5S85.2,84.9,90.4,84.8z M97.5,94.4
				c0-3.9-3-7-7.1-7c-4,0-7,3.3-7,7c0,3.8,3,7,7,7C94.5,101.3,97.5,98.2,97.5,94.4z"/>
			<path class="st0" d="M90.4,98.4c-2.3,0-4.1-1.8-4.1-4.1c0-2.3,1.9-4.1,4.2-4.1c2.2,0,4.2,1.8,4.3,4.1
				C94.7,96.6,92.6,98.5,90.4,98.4z"/>
		</g>
	</g>
	<g>
		<path d="M26.8,91.3c0,3.6-1.1,6.5-3.3,8.9c-2.2,2.3-5,3.5-8.5,3.5H6.2V78.5h8.4c3.9,0,7,1.2,9.2,3.7
			C25.8,84.5,26.8,87.5,26.8,91.3z M20.8,91c0-2-0.5-3.8-1.5-5.2c-1.1-1.5-2.6-2.3-4.4-2.3h-2.8v15.1h2.8c1.8,0,3.2-0.8,4.3-2.4
			C20.3,94.8,20.8,93.1,20.8,91z"/>
		<path d="M36.1,83.2h-5.5v-5h5.5V83.2z M36.1,103.7h-5.5V84.8h5.5V103.7z"/>
		<path d="M57.4,96.8c0.1,0.4,0.1,0.7,0.1,1c0,1.8-0.8,3.2-2.4,4.4c-1.6,1.2-3.6,1.7-5.9,1.7c-1,0-2-0.1-2.9-0.3
			c-1.3-0.3-2.3-0.7-3.1-1.3c-1-0.7-1.7-1.6-2-2.7l-0.3-1.2l4.5-0.6l0.2,0.7c0.2,0.6,0.6,1,1.4,1.3c0.7,0.3,1.6,0.5,2.4,0.5
			c0.9,0,1.7-0.1,2.3-0.4c0.7-0.3,1-0.8,1-1.3c0-0.1,0-0.2,0-0.2c-0.1-0.6-0.7-1-1.8-1.2s-2.1-0.3-3.2-0.5c-1.4-0.3-2.3-0.5-2.8-0.7
			c-0.9-0.3-1.7-0.9-2.3-1.7c-0.4-0.6-0.7-1.1-0.9-1.6s-0.3-1.1-0.3-1.8c0-2,0.8-3.6,2.4-4.7c1.4-0.9,3.2-1.4,5.3-1.4
			c2.2,0,3.8,0.4,5,1.2c0.9,0.7,1.8,1.9,2.5,3.6l-3.9,1.1L52.5,90c-0.2-0.6-0.6-1-1.3-1.3s-1.4-0.5-2.2-0.5s-1.4,0.1-1.9,0.4
			s-0.8,0.7-0.8,1.2c0,0.1,0,0.3,0.1,0.5c0.2,0.5,0.8,0.8,1.9,1.1c0.3,0.1,1.5,0.3,3.4,0.6c1.4,0.2,2.5,0.5,3,0.8
			c0.8,0.4,1.5,1,1.9,1.7C56.9,94.9,57.2,95.8,57.4,96.8z"/>
		<path d="M77.9,91.8L72.7,92c-0.1-1.1-0.3-1.9-0.5-2.3c-0.4-0.7-1.2-1-2.4-1c-1.1,0-2,0.6-2.6,1.8c-0.4,0.9-0.7,2.1-0.7,3.6
			c0,0.2,0,0.3,0,0.5s0,0.4,0,0.7c0.1,1.3,0.3,2.3,0.6,2.8c0.4,0.9,1.2,1.3,2.4,1.3c0.9,0,1.6-0.3,2.1-0.9c0.6-0.6,0.9-1.3,0.9-2.3
			l5.2,0.3c-0.4,2.3-1.2,4-2.5,5.2c-1.4,1.4-3.4,2-5.9,2c-2.6,0-4.7-0.8-6.4-2.3c-1.8-1.7-2.7-3.9-2.7-6.6c0-2.8,0.8-5.2,2.4-7.1
			c1.7-2.1,4-3.2,6.7-3.2c1.9,0,3.5,0.4,4.8,1.1c1.1,0.6,1.9,1.5,2.5,2.7C77.2,89.3,77.6,90.4,77.9,91.8z"/>
	</g>
	<g>
		<path d="M116.7,84.8l-4.6,18.9h-4.9l-5.7-18.9h5.2l3.1,11l2.6-11H116.7z"/>
		<path d="M136.9,95.2H125v1.6c0,0.9,0.4,1.7,1.1,2.3c0.7,0.7,1.6,1,2.5,1s1.6-0.3,2.3-0.9c0.6-0.5,0.9-1,0.9-1.4v-0.6l5.1,0.3
			l-0.1,0.4c-0.6,1.9-1.6,3.3-2.9,4.3c-1.5,1.2-3.4,1.7-5.6,1.7c-2.6,0-4.8-0.9-6.5-2.8c-1.7-1.8-2.5-4-2.5-6.5c0-2.7,0.7-5.1,2.2-7
			c1.7-2.2,3.9-3.3,6.7-3.3c2.6,0,4.7,0.9,6.3,2.7c1.7,1.8,2.5,4,2.5,6.8L136.9,95.2z M131.4,91.9c0-0.2,0.1-0.4,0.1-0.7
			c0-0.9-0.3-1.6-0.8-2.2c-0.6-0.7-1.3-1-2.3-1c-0.9,0-1.7,0.3-2.4,1c-0.7,0.7-1.1,1.5-1.1,2.3c0,0.2,0,0.4,0,0.6
			C124.9,91.9,131.4,91.9,131.4,91.9z"/>
		<path d="M150.5,90.2c-0.8,0-1.4,0-1.7,0.1c-0.5,0.1-1,0.3-1.4,0.8c-0.5,0.5-0.9,1.3-1.2,2.2c-0.2,1-0.4,2.1-0.4,3.3v7.1h-5.2V84.8
			h5v3.7c0.1-0.2,0.1-0.5,0.3-0.8c0.1-0.3,0.2-0.5,0.3-0.6c0.7-1.1,1.3-1.8,1.8-2.1c0.5-0.4,1-0.5,1.5-0.5h1L150.5,90.2L150.5,90.2z
			"/>
		<path d="M171.8,103.7h-17.9V78.5h17.9v5h-12v5h9.4v4.8h-9.5v5.2h12.1V103.7z"/>
		<path d="M193,103.7h-17.9V78.5H193v5h-12v5h9.4v4.8h-9.5v5.2H193V103.7z"/>
	</g>
</g>
<g>
	<path d="M10,121H9v-7.7H6.2v-0.9h6.4v0.9H10V121z"/>
	<path d="M18.3,121v-4.2c0-0.5-0.1-0.9-0.4-1.2c-0.2-0.3-0.6-0.4-1.1-0.4c-0.7,0-1.2,0.2-1.5,0.6s-0.5,1-0.5,1.8v3.4h-1v-9.2h1v2.8
		c0,0.3,0,0.6,0,0.8h0.1c0.2-0.3,0.5-0.6,0.8-0.7c0.4-0.2,0.8-0.3,1.2-0.3c0.8,0,1.4,0.2,1.8,0.6c0.4,0.4,0.6,1,0.6,1.8v4.3
		L18.3,121L18.3,121z"/>
	<path d="M23.9,121.1c-1,0-1.7-0.3-2.3-0.9c-0.6-0.6-0.8-1.4-0.8-2.4c0-1.1,0.3-1.9,0.8-2.5c0.5-0.6,1.2-0.9,2.1-0.9
		c0.8,0,1.5,0.3,1.9,0.8c0.5,0.5,0.7,1.2,0.7,2.1v0.6h-4.5c0,0.8,0.2,1.3,0.6,1.7c0.4,0.4,0.9,0.6,1.5,0.6c0.7,0,1.4-0.1,2.1-0.4
		v0.9c-0.3,0.2-0.7,0.3-1,0.3C24.8,121,24.4,121.1,23.9,121.1z M23.7,115.2c-0.5,0-0.9,0.2-1.3,0.5c-0.3,0.3-0.5,0.8-0.5,1.4h3.4
		c0-0.6-0.1-1.1-0.4-1.4S24.2,115.2,23.7,115.2z"/>
	<path d="M36.8,114.9c0,0.9-0.3,1.6-0.9,2c-0.6,0.5-1.5,0.7-2.6,0.7h-1v3.4h-1v-8.6h2.3C35.7,112.4,36.8,113.2,36.8,114.9z
		 M32.4,116.7h0.9c0.9,0,1.5-0.1,1.9-0.4c0.4-0.3,0.6-0.8,0.6-1.4c0-0.6-0.2-1-0.6-1.3s-1-0.4-1.8-0.4h-1.1L32.4,116.7L32.4,116.7z"
		/>
	<path d="M41.4,114.4c0.3,0,0.5,0,0.8,0.1l-0.1,0.9c-0.3-0.1-0.5-0.1-0.7-0.1c-0.5,0-1,0.2-1.4,0.6c-0.4,0.4-0.6,1-0.6,1.6v3.5h-1
		v-6.4h0.8l0.1,1.2l0,0c0.2-0.4,0.5-0.8,0.9-1S41,114.4,41.4,114.4z"/>
	<path d="M48.9,117.7c0,1.1-0.3,1.9-0.8,2.5c-0.5,0.6-1.3,0.9-2.2,0.9c-0.6,0-1.1-0.1-1.6-0.4c-0.5-0.3-0.8-0.7-1-1.2
		c-0.2-0.5-0.4-1.1-0.4-1.8c0-1.1,0.3-1.9,0.8-2.5c0.5-0.6,1.3-0.9,2.2-0.9c0.9,0,1.6,0.3,2.2,0.9C48.7,115.9,48.9,116.7,48.9,117.7
		z M44.1,117.7c0,0.8,0.2,1.5,0.5,1.9c0.3,0.4,0.8,0.7,1.5,0.7c0.6,0,1.1-0.2,1.5-0.7c0.3-0.4,0.5-1.1,0.5-1.9s-0.2-1.5-0.5-1.9
		c-0.3-0.4-0.8-0.6-1.5-0.6c-0.6,0-1.1,0.2-1.5,0.6C44.2,116.3,44.1,116.9,44.1,117.7z"/>
	<path d="M55.1,120.1L55.1,120.1c-0.5,0.7-1.2,1-2.1,1s-1.5-0.3-2-0.9c-0.5-0.6-0.7-1.4-0.7-2.5c0-1.1,0.2-1.9,0.7-2.5
		c0.5-0.6,1.1-0.9,2-0.9c0.9,0,1.6,0.3,2,1h0.1v-0.5v-0.5v-2.7h1v9.2h-0.8L55.1,120.1z M53.1,120.2c0.7,0,1.2-0.2,1.5-0.5
		c0.3-0.4,0.5-1,0.5-1.8v-0.2c0-0.9-0.2-1.6-0.5-2c-0.3-0.4-0.8-0.6-1.5-0.6c-0.6,0-1,0.2-1.3,0.7c-0.3,0.5-0.5,1.1-0.5,1.9
		s0.2,1.5,0.5,1.9C52.1,120,52.5,120.2,53.1,120.2z"/>
	<path d="M59,114.5v4.2c0,0.5,0.1,0.9,0.4,1.2c0.3,0.3,0.6,0.4,1.1,0.4c0.7,0,1.2-0.2,1.5-0.6c0.3-0.4,0.5-1,0.5-1.8v-3.4h1v6.4
		h-0.8l-0.1-0.9h-0.1c-0.2,0.3-0.5,0.6-0.8,0.7c-0.4,0.2-0.8,0.3-1.2,0.3c-0.8,0-1.4-0.2-1.8-0.6c-0.4-0.4-0.6-1-0.6-1.8v-4.3
		L59,114.5L59,114.5z"/>
	<path d="M68.1,121.1c-0.9,0-1.7-0.3-2.2-0.9c-0.5-0.6-0.8-1.4-0.8-2.5c0-1.1,0.3-1.9,0.8-2.5c0.5-0.6,1.3-0.9,2.2-0.9
		c0.3,0,0.6,0,0.9,0.1c0.3,0.1,0.6,0.1,0.7,0.2l-0.3,0.8c-0.2-0.1-0.5-0.2-0.7-0.2c-0.2,0-0.5-0.1-0.7-0.1c-1.3,0-2,0.8-2,2.5
		c0,0.8,0.2,1.4,0.5,1.8c0.3,0.4,0.8,0.6,1.4,0.6c0.5,0,1.1-0.1,1.7-0.4v0.9C69.3,121,68.8,121.1,68.1,121.1z"/>
	<path d="M73.3,120.3c0.2,0,0.3,0,0.5,0s0.3-0.1,0.4-0.1v0.8c-0.1,0.1-0.3,0.1-0.5,0.1c-0.2,0-0.4,0.1-0.6,0.1c-1.3,0-1.9-0.7-1.9-2
		v-3.9h-0.9v-0.5l0.9-0.4l0.4-1.4h0.6v1.5h1.9v0.8h-1.9v3.8c0,0.4,0.1,0.7,0.3,0.9C72.7,120.2,73,120.3,73.3,120.3z"/>
	<path d="M78.8,121v-8.6h1v8.6H78.8z"/>
	<path d="M86.4,121v-4.2c0-0.5-0.1-0.9-0.4-1.2c-0.2-0.3-0.6-0.4-1.1-0.4c-0.7,0-1.2,0.2-1.5,0.6s-0.5,1-0.5,1.8v3.4h-1v-6.4h0.8
		l0.2,0.9l0,0c0.2-0.3,0.5-0.6,0.9-0.7c0.4-0.1,0.8-0.3,1.2-0.3c0.8,0,1.4,0.2,1.8,0.6c0.4,0.4,0.6,1,0.6,1.8v4.3L86.4,121L86.4,121
		z"/>
	<path d="M91.5,120.3c0.2,0,0.3,0,0.5,0s0.3-0.1,0.4-0.1v0.8c-0.1,0.1-0.3,0.1-0.5,0.1c-0.2,0-0.4,0.1-0.6,0.1c-1.3,0-1.9-0.7-1.9-2
		v-3.9h-0.9v-0.5l0.9-0.4l0.4-1.4h0.6v1.5h1.9v0.8h-1.9v3.8c0,0.4,0.1,0.7,0.3,0.9C91,120.2,91.2,120.3,91.5,120.3z"/>
	<path d="M96.5,121.1c-1,0-1.7-0.3-2.3-0.9c-0.6-0.6-0.8-1.4-0.8-2.4c0-1.1,0.3-1.9,0.8-2.5c0.5-0.6,1.2-0.9,2.1-0.9
		c0.8,0,1.5,0.3,1.9,0.8c0.5,0.5,0.7,1.2,0.7,2.1v0.6h-4.5c0,0.8,0.2,1.3,0.6,1.7c0.4,0.4,0.9,0.6,1.5,0.6c0.7,0,1.4-0.1,2.1-0.4
		v0.9c-0.3,0.2-0.7,0.3-1,0.3C97.3,121,96.9,121.1,96.5,121.1z M96.2,115.2c-0.5,0-0.9,0.2-1.3,0.5c-0.3,0.3-0.5,0.8-0.5,1.4h3.4
		c0-0.6-0.1-1.1-0.4-1.4S96.7,115.2,96.2,115.2z"/>
	<path d="M101.5,121h-1v-9.2h1V121z"/>
	<path d="M104.5,121h-1v-9.2h1V121z"/>
	<path d="M106.5,112.8c0-0.2,0.1-0.4,0.2-0.5c0.1-0.1,0.2-0.2,0.4-0.2c0.2,0,0.3,0.1,0.4,0.2c0.1,0.1,0.2,0.3,0.2,0.5
		s-0.1,0.4-0.2,0.5c-0.1,0.1-0.3,0.2-0.4,0.2c-0.2,0-0.3-0.1-0.4-0.2C106.6,113.2,106.5,113,106.5,112.8z M107.6,121h-1v-6.4h1V121z
		"/>
	<path d="M114.9,114.5v0.6l-1.2,0.1c0.1,0.1,0.2,0.3,0.3,0.5c0.1,0.2,0.1,0.5,0.1,0.8c0,0.6-0.2,1.1-0.7,1.5c-0.4,0.4-1,0.6-1.8,0.6
		c-0.2,0-0.4,0-0.5,0c-0.4,0.2-0.6,0.5-0.6,0.8c0,0.2,0.1,0.3,0.2,0.4c0.1,0.1,0.4,0.1,0.8,0.1h1.2c0.7,0,1.2,0.1,1.6,0.4
		c0.4,0.3,0.6,0.7,0.6,1.3c0,0.7-0.3,1.3-0.9,1.7c-0.6,0.4-1.4,0.6-2.5,0.6c-0.9,0-1.5-0.2-2-0.5s-0.7-0.8-0.7-1.3
		c0-0.4,0.1-0.7,0.4-1c0.3-0.3,0.6-0.5,1.1-0.6c-0.2-0.1-0.3-0.2-0.4-0.4c-0.1-0.2-0.2-0.3-0.2-0.6c0-0.2,0.1-0.4,0.2-0.6
		c0.1-0.2,0.3-0.4,0.6-0.5c-0.3-0.1-0.6-0.4-0.8-0.7c-0.2-0.3-0.3-0.7-0.3-1.1c0-0.7,0.2-1.3,0.6-1.7c0.4-0.4,1-0.6,1.8-0.6
		c0.3,0,0.6,0,0.9,0.1L114.9,114.5L114.9,114.5z M109.8,122.1c0,0.4,0.1,0.6,0.4,0.8c0.3,0.2,0.7,0.3,1.3,0.3c0.8,0,1.4-0.1,1.8-0.4
		c0.4-0.2,0.6-0.6,0.6-1c0-0.4-0.1-0.6-0.3-0.7c-0.2-0.1-0.6-0.2-1.2-0.2h-1.2c-0.4,0-0.8,0.1-1,0.3
		C109.9,121.3,109.8,121.7,109.8,122.1z M110.3,116.5c0,0.5,0.1,0.8,0.4,1c0.3,0.2,0.6,0.4,1.1,0.4c1,0,1.4-0.5,1.4-1.4
		c0-1-0.5-1.5-1.5-1.5c-0.5,0-0.8,0.1-1.1,0.4C110.3,115.8,110.3,116.1,110.3,116.5z"/>
	<path d="M119,121.1c-1,0-1.7-0.3-2.3-0.9c-0.6-0.6-0.8-1.4-0.8-2.4c0-1.1,0.3-1.9,0.8-2.5c0.5-0.6,1.2-0.9,2.1-0.9
		c0.8,0,1.5,0.3,1.9,0.8c0.5,0.5,0.7,1.2,0.7,2.1v0.6h-4.5c0,0.8,0.2,1.3,0.6,1.7c0.4,0.4,0.9,0.6,1.5,0.6c0.7,0,1.4-0.1,2.1-0.4
		v0.9c-0.3,0.2-0.7,0.3-1,0.3S119.5,121.1,119,121.1z M118.8,115.2c-0.5,0-0.9,0.2-1.3,0.5c-0.3,0.3-0.5,0.8-0.6,1.4h3.4
		c0-0.6-0.1-1.1-0.4-1.4C119.6,115.4,119.3,115.2,118.8,115.2z"/>
	<path d="M127.5,121v-4.2c0-0.5-0.1-0.9-0.4-1.2c-0.2-0.3-0.6-0.4-1.1-0.4c-0.7,0-1.2,0.2-1.5,0.6s-0.5,1-0.5,1.8v3.4h-1v-6.4h0.8
		l0.2,0.9l0,0c0.2-0.3,0.5-0.6,0.9-0.7c0.4-0.2,0.8-0.3,1.2-0.3c0.8,0,1.4,0.2,1.8,0.6c0.4,0.4,0.6,1,0.6,1.8v4.3L127.5,121
		L127.5,121z"/>
	<path d="M133.1,121.1c-0.9,0-1.7-0.3-2.2-0.9c-0.5-0.6-0.8-1.4-0.8-2.5c0-1.1,0.3-1.9,0.8-2.5c0.5-0.6,1.3-0.9,2.2-0.9
		c0.3,0,0.6,0,0.9,0.1c0.3,0.1,0.6,0.1,0.7,0.2l-0.3,0.8c-0.2-0.1-0.5-0.2-0.7-0.2c-0.3-0.1-0.5-0.1-0.7-0.1c-1.3,0-2,0.8-2,2.5
		c0,0.8,0.2,1.4,0.5,1.8s0.8,0.6,1.4,0.6c0.5,0,1.1-0.1,1.7-0.4v0.9C134.3,121,133.8,121.1,133.1,121.1z"/>
	<path d="M138.9,121.1c-1,0-1.7-0.3-2.3-0.9c-0.6-0.6-0.8-1.4-0.8-2.4c0-1.1,0.3-1.9,0.8-2.5c0.5-0.6,1.2-0.9,2.1-0.9
		c0.8,0,1.5,0.3,1.9,0.8c0.5,0.5,0.7,1.2,0.7,2.1v0.6h-4.5c0,0.8,0.2,1.3,0.6,1.7c0.4,0.4,0.9,0.6,1.5,0.6c0.7,0,1.4-0.1,2.1-0.4
		v0.9c-0.3,0.2-0.7,0.3-1,0.3C139.7,121,139.4,121.1,138.9,121.1z M138.7,115.2c-0.5,0-0.9,0.2-1.3,0.5c-0.3,0.3-0.5,0.8-0.6,1.4
		h3.4c0-0.6-0.1-1.1-0.4-1.4C139.5,115.4,139.2,115.2,138.7,115.2z"/>
	<path d="M151.7,114.9c0,0.9-0.3,1.6-0.9,2c-0.6,0.4-1.5,0.7-2.6,0.7h-1v3.4h-1v-8.6h2.3C150.7,112.4,151.7,113.2,151.7,114.9z
		 M147.2,116.7h0.9c0.9,0,1.5-0.1,1.9-0.4s0.6-0.8,0.6-1.4c0-0.6-0.2-1-0.6-1.3c-0.4-0.3-1-0.4-1.8-0.4h-1V116.7z"/>
	<path d="M154.4,121h-1v-9.2h1V121z"/>
	<path d="M160.4,121l-0.2-0.9l0,0c-0.3,0.4-0.6,0.7-1,0.8c-0.3,0.1-0.7,0.2-1.2,0.2c-0.6,0-1.2-0.2-1.5-0.5
		c-0.4-0.3-0.6-0.8-0.6-1.4c0-1.3,1.1-2,3.2-2.1h1.1v-0.4c0-0.5-0.1-0.9-0.3-1.1c-0.2-0.2-0.6-0.4-1.1-0.4s-1.2,0.2-1.8,0.5
		l-0.3-0.8c0.3-0.2,0.7-0.3,1.1-0.4c0.4-0.1,0.8-0.1,1.2-0.1c0.8,0,1.4,0.2,1.7,0.5c0.4,0.3,0.6,0.9,0.6,1.7v4.4
		C161.3,121,160.4,121,160.4,121z M158.3,120.3c0.6,0,1.1-0.2,1.4-0.5c0.3-0.3,0.5-0.8,0.5-1.4v-0.6h-1c-0.8,0-1.4,0.1-1.7,0.4
		c-0.3,0.2-0.5,0.6-0.5,1s0.1,0.6,0.3,0.8C157.5,120.2,157.9,120.3,158.3,120.3z"/>
	<path d="M165.3,120.3c0.2,0,0.3,0,0.5,0c0.2,0,0.3-0.1,0.4-0.1v0.8c-0.1,0.1-0.3,0.1-0.5,0.1c-0.2,0-0.4,0.1-0.6,0.1
		c-1.3,0-1.9-0.7-1.9-2v-3.9h-0.9v-0.5l0.9-0.4l0.4-1.4h0.6v1.5h1.9v0.8h-1.9v3.8c0,0.4,0.1,0.7,0.3,0.9
		C164.7,120.2,165,120.3,165.3,120.3z"/>
	<path d="M170.4,115.3h-1.7v5.8h-1v-5.8h-1.2v-0.4l1.2-0.4v-0.4c0-1.6,0.7-2.4,2.1-2.4c0.3,0,0.8,0.1,1.2,0.2l-0.3,0.8
		c-0.4-0.1-0.7-0.2-1-0.2c-0.4,0-0.6,0.1-0.8,0.4c-0.2,0.2-0.3,0.6-0.3,1.2v0.4h1.7L170.4,115.3L170.4,115.3z"/>
	<path d="M177.1,117.7c0,1.1-0.3,1.9-0.8,2.5c-0.5,0.6-1.3,0.9-2.2,0.9c-0.6,0-1.1-0.1-1.6-0.4c-0.5-0.3-0.8-0.7-1-1.2
		c-0.2-0.5-0.4-1.1-0.4-1.8c0-1.1,0.3-1.9,0.8-2.5c0.5-0.6,1.3-0.9,2.2-0.9s1.6,0.3,2.2,0.9C176.9,115.9,177.1,116.7,177.1,117.7z
		 M172.2,117.7c0,0.8,0.2,1.5,0.5,1.9c0.3,0.4,0.8,0.7,1.5,0.7c0.7,0,1.1-0.2,1.5-0.7c0.3-0.4,0.5-1.1,0.5-1.9s-0.2-1.5-0.5-1.9
		c-0.3-0.4-0.8-0.6-1.5-0.6c-0.6,0-1.1,0.2-1.5,0.6S172.2,116.9,172.2,117.7z"/>
	<path d="M181.8,114.4c0.3,0,0.5,0,0.8,0.1l-0.1,0.9c-0.3-0.1-0.5-0.1-0.7-0.1c-0.5,0-1,0.2-1.4,0.6s-0.6,1-0.6,1.6v3.5h-1v-6.4h0.8
		l0.1,1.2l0,0c0.2-0.4,0.5-0.8,0.9-1C181.1,114.5,181.4,114.4,181.8,114.4z"/>
	<path d="M192,121v-4.2c0-0.5-0.1-0.9-0.3-1.2c-0.2-0.3-0.6-0.4-1-0.4c-0.6,0-1.1,0.2-1.4,0.5c-0.3,0.4-0.4,0.9-0.4,1.6v3.6h-1v-4.2
		c0-0.5-0.1-0.9-0.3-1.2c-0.2-0.3-0.6-0.4-1-0.4c-0.6,0-1.1,0.2-1.4,0.6c-0.3,0.4-0.4,1-0.4,1.8v3.4h-1v-6.4h0.8l0.2,0.9l0,0
		c0.2-0.3,0.4-0.6,0.8-0.7s0.7-0.3,1.1-0.3c1,0,1.7,0.4,2,1.1l0,0c0.2-0.3,0.5-0.6,0.8-0.8c0.4-0.2,0.8-0.3,1.3-0.3
		c0.7,0,1.3,0.2,1.7,0.6c0.4,0.4,0.5,1,0.5,1.8v4.3C193,121,192,121,192,121z"/>
</g>
</svg>
