<?xml version="1.0" encoding="utf-8"?>
<!-- Generator: Adobe Illustrator 26.0.3, SVG Export Plug-In . SVG Version: 6.00 Build 0)  -->
<svg version="1.1" id="Layer_1" xmlns="http://www.w3.org/2000/svg" xmlns:xlink="http://www.w3.org/1999/xlink" x="0px" y="0px"
	 viewBox="0 0 200 200" style="enable-background:new 0 0 200 200;" xml:space="preserve">
<g>
	<g>
		<g>
			<path d="M90.8,85c5.5,0,9.6,4.2,9.6,9.5s-4.2,9.5-9.6,9.5c-5.2,0-9.5-4.1-9.5-9.5S85.6,85.1,90.8,85z M97.9,94.6c0-3.9-3-7-7.1-7
				c-4,0-7,3.3-7,7c0,3.8,3,7,7,7C94.9,101.5,97.9,98.4,97.9,94.6z"/>
			<path d="M90.8,98.6c-2.3,0-4.1-1.8-4.1-4.1c0-2.3,1.9-4.1,4.2-4.1c2.2,0,4.2,1.8,4.3,4.1C95.1,96.8,93,98.7,90.8,98.6z"/>
		</g>
	</g>
	<g>
		<path d="M27.2,91.5c0,3.6-1.1,6.5-3.3,8.9c-2.2,2.3-5,3.5-8.5,3.5H6.6V78.7H15c3.9,0,7,1.2,9.2,3.7C26.2,84.7,27.2,87.7,27.2,91.5
			z M21.2,91.2c0-2-0.5-3.8-1.5-5.2c-1.1-1.5-2.6-2.3-4.4-2.3h-2.8v15.1h2.8c1.8,0,3.2-0.8,4.3-2.4C20.7,95,21.2,93.3,21.2,91.2z"/>
		<path d="M36.5,83.4H31v-5h5.5V83.4z M36.5,103.9H31V85h5.5V103.9z"/>
		<path d="M57.8,97c0.1,0.4,0.1,0.7,0.1,1c0,1.8-0.8,3.2-2.4,4.4c-1.6,1.2-3.6,1.7-5.9,1.7c-1,0-2-0.1-2.9-0.3
			c-1.3-0.3-2.3-0.7-3.1-1.3c-1-0.7-1.7-1.6-2-2.7l-0.3-1.2l4.5-0.6l0.2,0.7c0.2,0.6,0.6,1,1.4,1.3c0.7,0.3,1.6,0.5,2.4,0.5
			c0.9,0,1.7-0.1,2.3-0.4c0.7-0.3,1-0.8,1-1.3c0-0.1,0-0.2,0-0.2c-0.1-0.6-0.7-1-1.8-1.2s-2.1-0.3-3.2-0.5c-1.4-0.3-2.3-0.5-2.8-0.7
			c-0.9-0.3-1.7-0.9-2.3-1.7c-0.4-0.6-0.7-1.1-0.9-1.6s-0.3-1.1-0.3-1.8c0-2,0.8-3.6,2.4-4.7c1.4-0.9,3.2-1.4,5.3-1.4
			c2.2,0,3.8,0.4,5,1.2c0.9,0.7,1.8,1.9,2.5,3.6l-3.9,1.1l-0.2-0.7c-0.2-0.6-0.6-1-1.3-1.3s-1.4-0.5-2.2-0.5s-1.4,0.1-1.9,0.4
			s-0.8,0.7-0.8,1.2c0,0.1,0,0.3,0.1,0.5c0.2,0.5,0.8,0.8,1.9,1.1c0.3,0.1,1.5,0.3,3.4,0.6c1.4,0.2,2.5,0.5,3,0.8
			c0.8,0.4,1.5,1,1.9,1.7C57.3,95.1,57.6,96,57.8,97z"/>
		<path d="M78.3,92l-5.2,0.2c-0.1-1.1-0.3-1.9-0.5-2.3c-0.4-0.7-1.2-1-2.4-1c-1.1,0-2,0.6-2.6,1.8c-0.4,0.9-0.7,2.1-0.7,3.6
			c0,0.2,0,0.3,0,0.5s0,0.4,0,0.7c0.1,1.3,0.3,2.3,0.6,2.8c0.4,0.9,1.2,1.3,2.4,1.3c0.9,0,1.6-0.3,2.1-0.9c0.6-0.6,0.9-1.3,0.9-2.3
			l5.2,0.3c-0.4,2.3-1.2,4-2.5,5.2c-1.4,1.4-3.4,2-5.9,2c-2.6,0-4.7-0.8-6.4-2.3c-1.8-1.7-2.7-3.9-2.7-6.6c0-2.8,0.8-5.2,2.4-7.1
			c1.7-2.1,4-3.2,6.7-3.2c1.9,0,3.5,0.4,4.8,1.1c1.1,0.6,1.9,1.5,2.5,2.7C77.6,89.5,78,90.6,78.3,92z"/>
	</g>
	<g>
		<path d="M117.1,85l-4.6,18.9h-4.9L101.9,85h5.2l3.1,11l2.6-11H117.1z"/>
		<path d="M137.3,95.4h-11.9V97c0,0.9,0.4,1.7,1.1,2.3c0.7,0.7,1.6,1,2.5,1s1.6-0.3,2.3-0.9c0.6-0.5,0.9-1,0.9-1.4v-0.6l5.1,0.3
			l-0.1,0.4c-0.6,1.9-1.6,3.3-2.9,4.3c-1.5,1.2-3.4,1.7-5.6,1.7c-2.6,0-4.8-0.9-6.5-2.8c-1.7-1.8-2.5-4-2.5-6.5c0-2.7,0.7-5.1,2.2-7
			c1.7-2.2,3.9-3.3,6.7-3.3c2.6,0,4.7,0.9,6.3,2.7c1.7,1.8,2.5,4,2.5,6.8L137.3,95.4z M131.8,92.1c0-0.2,0.1-0.4,0.1-0.7
			c0-0.9-0.3-1.6-0.8-2.2c-0.6-0.7-1.3-1-2.3-1c-0.9,0-1.7,0.3-2.4,1c-0.7,0.7-1.1,1.5-1.1,2.3c0,0.2,0,0.4,0,0.6
			C125.3,92.1,131.8,92.1,131.8,92.1z"/>
		<path d="M150.9,90.4c-0.8,0-1.4,0-1.7,0.1c-0.5,0.1-1,0.3-1.4,0.8c-0.5,0.5-0.9,1.3-1.2,2.2c-0.2,1-0.4,2.1-0.4,3.3v7.1H141V85h5
			v3.7c0.1-0.2,0.1-0.5,0.3-0.8c0.1-0.3,0.2-0.5,0.3-0.6c0.7-1.1,1.3-1.8,1.8-2.1c0.5-0.4,1-0.5,1.5-0.5h1L150.9,90.4L150.9,90.4z"
			/>
		<path d="M172.2,103.9h-17.9V78.7h17.9v5h-12v5h9.4v4.8h-9.5v5.2h12.1V103.9z"/>
		<path d="M193.4,103.9h-17.9V78.7h17.9v5h-12v5h9.4v4.8h-9.5v5.2h12.1V103.9z"/>
	</g>
</g>
<g>
	<path d="M10.4,121.2h-1v-7.7H6.6v-0.9H13v0.9h-2.7V121.2z"/>
	<path d="M18.7,121.2V117c0-0.5-0.1-0.9-0.4-1.2c-0.2-0.3-0.6-0.4-1.1-0.4c-0.7,0-1.2,0.2-1.5,0.6s-0.5,1-0.5,1.8v3.4h-1v-9.2h1v2.8
		c0,0.3,0,0.6,0,0.8h0.1c0.2-0.3,0.5-0.6,0.8-0.7c0.4-0.2,0.8-0.3,1.2-0.3c0.8,0,1.4,0.2,1.8,0.6c0.4,0.4,0.6,1,0.6,1.8v4.3
		L18.7,121.2L18.7,121.2z"/>
	<path d="M24.4,121.3c-1,0-1.7-0.3-2.3-0.9c-0.6-0.6-0.8-1.4-0.8-2.4c0-1.1,0.3-1.9,0.8-2.5c0.5-0.6,1.2-0.9,2.1-0.9
		c0.8,0,1.5,0.3,1.9,0.8c0.5,0.5,0.7,1.2,0.7,2.1v0.6h-4.5c0,0.8,0.2,1.3,0.6,1.7c0.4,0.4,0.9,0.6,1.5,0.6c0.7,0,1.4-0.1,2.1-0.4
		v0.9c-0.3,0.2-0.7,0.3-1,0.3C25.3,121.2,24.9,121.3,24.4,121.3z M24.2,115.3c-0.5,0-0.9,0.2-1.3,0.5c-0.3,0.3-0.5,0.8-0.5,1.4h3.4
		c0-0.6-0.1-1.1-0.4-1.4C25.1,115.5,24.7,115.3,24.2,115.3z"/>
	<path d="M37.3,115c0,0.9-0.3,1.6-0.9,2c-0.6,0.5-1.5,0.7-2.6,0.7h-1v3.4h-1v-8.6h2.3C36.2,112.5,37.3,113.3,37.3,115z M32.8,116.9
		h0.9c0.9,0,1.5-0.1,1.9-0.4s0.6-0.8,0.6-1.4c0-0.6-0.2-1-0.6-1.3c-0.4-0.3-1-0.4-1.8-0.4h-1.1L32.8,116.9L32.8,116.9z"/>
	<path d="M41.8,114.5c0.3,0,0.5,0,0.8,0.1l-0.1,0.9c-0.3-0.1-0.5-0.1-0.7-0.1c-0.5,0-1,0.2-1.4,0.6c-0.4,0.4-0.6,1-0.6,1.6v3.5h-1
		v-6.4h0.8l0.1,1.2l0,0c0.2-0.4,0.5-0.8,0.9-1C41,114.6,41.4,114.5,41.8,114.5z"/>
	<path d="M49.4,117.9c0,1.1-0.3,1.9-0.8,2.5c-0.5,0.6-1.3,0.9-2.2,0.9c-0.6,0-1.1-0.1-1.6-0.4c-0.5-0.3-0.8-0.7-1-1.2
		c-0.2-0.5-0.4-1.1-0.4-1.8c0-1.1,0.3-1.9,0.8-2.5c0.5-0.6,1.3-0.9,2.2-0.9c0.9,0,1.6,0.3,2.2,0.9C49.2,116,49.4,116.9,49.4,117.9z
		 M44.5,117.9c0,0.8,0.2,1.5,0.5,1.9c0.3,0.4,0.8,0.7,1.5,0.7c0.6,0,1.1-0.2,1.5-0.7c0.3-0.4,0.5-1.1,0.5-1.9s-0.2-1.5-0.5-1.9
		c-0.3-0.4-0.8-0.6-1.5-0.6c-0.6,0-1.1,0.2-1.5,0.6C44.6,116.4,44.5,117.1,44.5,117.9z"/>
	<path d="M55.5,120.3L55.5,120.3c-0.5,0.7-1.2,1-2.1,1c-0.9,0-1.5-0.3-2-0.9c-0.5-0.6-0.7-1.4-0.7-2.5s0.2-1.9,0.7-2.5
		c0.5-0.6,1.1-0.9,2-0.9c0.9,0,1.6,0.3,2,1h0.1V115v-0.5v-2.7h1v9.2h-0.8L55.5,120.3z M53.5,120.4c0.7,0,1.2-0.2,1.5-0.5
		c0.3-0.4,0.5-1,0.5-1.8v-0.2c0-0.9-0.2-1.6-0.5-2c-0.3-0.4-0.8-0.6-1.5-0.6c-0.6,0-1,0.2-1.3,0.7c-0.3,0.5-0.5,1.1-0.5,1.9
		s0.2,1.5,0.5,1.9C52.5,120.2,52.9,120.4,53.5,120.4z"/>
	<path d="M59.4,114.6v4.2c0,0.5,0.1,0.9,0.4,1.2c0.3,0.3,0.6,0.4,1.1,0.4c0.7,0,1.2-0.2,1.5-0.6c0.3-0.4,0.5-1,0.5-1.8v-3.4h1v6.4
		H63l-0.1-0.9h-0.1c-0.2,0.3-0.5,0.6-0.8,0.7c-0.4,0.2-0.8,0.3-1.2,0.3c-0.8,0-1.4-0.2-1.8-0.6c-0.4-0.4-0.6-1-0.6-1.8v-4.3
		L59.4,114.6L59.4,114.6z"/>
	<path d="M68.5,121.3c-0.9,0-1.7-0.3-2.2-0.9c-0.5-0.6-0.8-1.4-0.8-2.5s0.3-1.9,0.8-2.5c0.5-0.6,1.3-0.9,2.2-0.9
		c0.3,0,0.6,0,0.9,0.1c0.3,0.1,0.6,0.1,0.7,0.2l-0.3,0.8c-0.2-0.1-0.5-0.2-0.7-0.2c-0.2,0-0.5-0.1-0.7-0.1c-1.3,0-2,0.8-2,2.5
		c0,0.8,0.2,1.4,0.5,1.8c0.3,0.4,0.8,0.6,1.4,0.6c0.5,0,1.1-0.1,1.7-0.4v0.9C69.7,121.2,69.2,121.3,68.5,121.3z"/>
	<path d="M73.8,120.5c0.2,0,0.3,0,0.5,0s0.3-0.1,0.4-0.1v0.8c-0.1,0.1-0.3,0.1-0.5,0.1s-0.4,0.1-0.6,0.1c-1.3,0-1.9-0.7-1.9-2v-3.9
		h-0.9V115l0.9-0.4l0.4-1.4h0.6v1.5h1.9v0.8h-1.9v3.8c0,0.4,0.1,0.7,0.3,0.9C73.2,120.4,73.5,120.5,73.8,120.5z"/>
	<path d="M79.2,121.2v-8.6h1v8.6H79.2z"/>
	<path d="M86.9,121.2V117c0-0.5-0.1-0.9-0.4-1.2c-0.2-0.3-0.6-0.4-1.1-0.4c-0.7,0-1.2,0.2-1.5,0.6c-0.3,0.4-0.5,1-0.5,1.8v3.4h-1
		v-6.4h0.8l0.2,0.9l0,0c0.2-0.3,0.5-0.6,0.9-0.7c0.4-0.1,0.8-0.3,1.2-0.3c0.8,0,1.4,0.2,1.8,0.6c0.4,0.4,0.6,1,0.6,1.8v4.3
		L86.9,121.2L86.9,121.2z"/>
	<path d="M91.9,120.5c0.2,0,0.3,0,0.5,0s0.3-0.1,0.4-0.1v0.8c-0.1,0.1-0.3,0.1-0.5,0.1c-0.2,0-0.4,0.1-0.6,0.1c-1.3,0-1.9-0.7-1.9-2
		v-3.9h-0.9V115l0.9-0.4l0.4-1.4h0.6v1.5h1.9v0.8h-1.9v3.8c0,0.4,0.1,0.7,0.3,0.9C91.4,120.4,91.6,120.5,91.9,120.5z"/>
	<path d="M96.9,121.3c-1,0-1.7-0.3-2.3-0.9c-0.6-0.6-0.8-1.4-0.8-2.4c0-1.1,0.3-1.9,0.8-2.5c0.5-0.6,1.2-0.9,2.1-0.9
		c0.8,0,1.5,0.3,1.9,0.8c0.5,0.5,0.7,1.2,0.7,2.1v0.6h-4.5c0,0.8,0.2,1.3,0.6,1.7c0.4,0.4,0.9,0.6,1.5,0.6c0.7,0,1.4-0.1,2.1-0.4
		v0.9c-0.3,0.2-0.7,0.3-1,0.3S97.3,121.3,96.9,121.3z M96.6,115.3c-0.5,0-0.9,0.2-1.3,0.5c-0.3,0.3-0.5,0.8-0.5,1.4h3.4
		c0-0.6-0.1-1.1-0.4-1.4C97.5,115.5,97.1,115.3,96.6,115.3z"/>
	<path d="M101.9,121.2h-1v-9.2h1V121.2z"/>
	<path d="M104.9,121.2h-1v-9.2h1V121.2z"/>
	<path d="M106.9,112.9c0-0.2,0.1-0.4,0.2-0.5c0.1-0.1,0.2-0.2,0.4-0.2c0.2,0,0.3,0.1,0.4,0.2c0.1,0.1,0.2,0.3,0.2,0.5
		s-0.1,0.4-0.2,0.5c-0.1,0.1-0.3,0.2-0.4,0.2c-0.2,0-0.3-0.1-0.4-0.2C107,113.3,106.9,113.1,106.9,112.9z M108,121.2h-1v-6.4h1
		V121.2z"/>
	<path d="M115.3,114.6v0.6l-1.2,0.1c0.1,0.1,0.2,0.3,0.3,0.5c0.1,0.2,0.1,0.5,0.1,0.8c0,0.6-0.2,1.1-0.7,1.5c-0.4,0.4-1,0.6-1.8,0.6
		c-0.2,0-0.4,0-0.5,0c-0.4,0.2-0.6,0.5-0.6,0.8c0,0.2,0.1,0.3,0.2,0.4c0.1,0.1,0.4,0.1,0.8,0.1h1.2c0.7,0,1.2,0.1,1.6,0.4
		c0.4,0.3,0.6,0.7,0.6,1.3c0,0.7-0.3,1.3-0.9,1.7c-0.6,0.4-1.4,0.6-2.5,0.6c-0.9,0-1.5-0.2-2-0.5c-0.5-0.3-0.7-0.8-0.7-1.3
		c0-0.4,0.1-0.7,0.4-1c0.3-0.3,0.6-0.5,1.1-0.6c-0.2-0.1-0.3-0.2-0.4-0.4c-0.1-0.2-0.2-0.3-0.2-0.6c0-0.2,0.1-0.4,0.2-0.6
		c0.1-0.2,0.3-0.4,0.6-0.5c-0.3-0.1-0.6-0.4-0.8-0.7c-0.2-0.3-0.3-0.7-0.3-1.1c0-0.7,0.2-1.3,0.6-1.7c0.4-0.4,1-0.6,1.8-0.6
		c0.3,0,0.6,0,0.9,0.1L115.3,114.6L115.3,114.6z M110.2,122.3c0,0.4,0.1,0.6,0.4,0.8s0.7,0.3,1.3,0.3c0.8,0,1.4-0.1,1.8-0.4
		c0.4-0.2,0.6-0.6,0.6-1s-0.1-0.6-0.3-0.7c-0.2-0.1-0.6-0.2-1.2-0.2h-1.2c-0.4,0-0.8,0.1-1,0.3C110.4,121.5,110.2,121.9,110.2,122.3
		z M110.8,116.7c0,0.5,0.1,0.8,0.4,1c0.3,0.2,0.6,0.4,1.1,0.4c1,0,1.4-0.5,1.4-1.4c0-1-0.5-1.5-1.5-1.5c-0.5,0-0.8,0.1-1.1,0.4
		C110.8,115.9,110.8,116.2,110.8,116.7z"/>
	<path d="M119.4,121.3c-1,0-1.7-0.3-2.3-0.9c-0.6-0.6-0.8-1.4-0.8-2.4c0-1.1,0.3-1.9,0.8-2.5c0.5-0.6,1.2-0.9,2.1-0.9
		c0.8,0,1.5,0.3,1.9,0.8c0.5,0.5,0.7,1.2,0.7,2.1v0.6h-4.5c0,0.8,0.2,1.3,0.6,1.7c0.4,0.4,0.9,0.6,1.5,0.6c0.7,0,1.4-0.1,2.1-0.4
		v0.9c-0.3,0.2-0.7,0.3-1,0.3C120.2,121.2,119.9,121.3,119.4,121.3z M119.2,115.3c-0.5,0-0.9,0.2-1.3,0.5c-0.3,0.3-0.5,0.8-0.6,1.4
		h3.4c0-0.6-0.1-1.1-0.4-1.4C120,115.5,119.7,115.3,119.2,115.3z"/>
	<path d="M127.9,121.2V117c0-0.5-0.1-0.9-0.4-1.2c-0.2-0.3-0.6-0.4-1.1-0.4c-0.7,0-1.2,0.2-1.5,0.6s-0.5,1-0.5,1.8v3.4h-1v-6.4h0.8
		l0.2,0.9l0,0c0.2-0.3,0.5-0.6,0.9-0.7c0.4-0.2,0.8-0.3,1.2-0.3c0.8,0,1.4,0.2,1.8,0.6c0.4,0.4,0.6,1,0.6,1.8v4.3L127.9,121.2
		L127.9,121.2z"/>
	<path d="M133.5,121.3c-0.9,0-1.7-0.3-2.2-0.9c-0.5-0.6-0.8-1.4-0.8-2.5s0.3-1.9,0.8-2.5c0.5-0.6,1.3-0.9,2.2-0.9
		c0.3,0,0.6,0,0.9,0.1c0.3,0.1,0.6,0.1,0.7,0.2l-0.3,0.8c-0.2-0.1-0.5-0.2-0.7-0.2c-0.3-0.1-0.5-0.1-0.7-0.1c-1.3,0-2,0.8-2,2.5
		c0,0.8,0.2,1.4,0.5,1.8s0.8,0.6,1.4,0.6c0.5,0,1.1-0.1,1.7-0.4v0.9C134.7,121.2,134.2,121.3,133.5,121.3z"/>
	<path d="M139.3,121.3c-1,0-1.7-0.3-2.3-0.9c-0.6-0.6-0.8-1.4-0.8-2.4c0-1.1,0.3-1.9,0.8-2.5c0.5-0.6,1.2-0.9,2.1-0.9
		c0.8,0,1.5,0.3,1.9,0.8c0.5,0.5,0.7,1.2,0.7,2.1v0.6h-4.5c0,0.8,0.2,1.3,0.6,1.7c0.4,0.4,0.9,0.6,1.5,0.6c0.7,0,1.4-0.1,2.1-0.4
		v0.9c-0.3,0.2-0.7,0.3-1,0.3S139.8,121.3,139.3,121.3z M139.1,115.3c-0.5,0-0.9,0.2-1.3,0.5c-0.3,0.3-0.5,0.8-0.6,1.4h3.4
		c0-0.6-0.1-1.1-0.4-1.4C139.9,115.5,139.6,115.3,139.1,115.3z"/>
	<path d="M152.1,115c0,0.9-0.3,1.6-0.9,2c-0.6,0.4-1.5,0.7-2.6,0.7h-1v3.4h-1v-8.6h2.3C151.1,112.5,152.1,113.3,152.1,115z
		 M147.7,116.9h0.9c0.9,0,1.5-0.1,1.9-0.4s0.6-0.8,0.6-1.4c0-0.6-0.2-1-0.6-1.3c-0.4-0.3-1-0.4-1.8-0.4h-1V116.9z"/>
	<path d="M154.8,121.2h-1v-9.2h1V121.2z"/>
	<path d="M160.9,121.2l-0.2-0.9l0,0c-0.3,0.4-0.6,0.7-1,0.8c-0.3,0.1-0.7,0.2-1.2,0.2c-0.6,0-1.2-0.2-1.5-0.5
		c-0.4-0.3-0.6-0.8-0.6-1.4c0-1.3,1.1-2,3.2-2.1h1.1v-0.4c0-0.5-0.1-0.9-0.3-1.1c-0.2-0.2-0.6-0.4-1.1-0.4s-1.2,0.2-1.8,0.5
		l-0.3-0.8c0.3-0.2,0.7-0.3,1.1-0.4c0.4-0.1,0.8-0.1,1.2-0.1c0.8,0,1.4,0.2,1.7,0.5c0.4,0.3,0.6,0.9,0.6,1.7v4.4
		C161.8,121.2,160.9,121.2,160.9,121.2z M158.7,120.5c0.6,0,1.1-0.2,1.4-0.5c0.3-0.3,0.5-0.8,0.5-1.4V118h-1c-0.8,0-1.4,0.1-1.7,0.4
		c-0.3,0.2-0.5,0.6-0.5,1c0,0.4,0.1,0.6,0.3,0.8C157.9,120.4,158.3,120.5,158.7,120.5z"/>
	<path d="M165.7,120.5c0.2,0,0.3,0,0.5,0c0.2,0,0.3-0.1,0.4-0.1v0.8c-0.1,0.1-0.3,0.1-0.5,0.1c-0.2,0-0.4,0.1-0.6,0.1
		c-1.3,0-1.9-0.7-1.9-2v-3.9h-0.9V115l0.9-0.4l0.4-1.4h0.6v1.5h1.9v0.8h-1.9v3.8c0,0.4,0.1,0.7,0.3,0.9
		C165.1,120.4,165.4,120.5,165.7,120.5z"/>
	<path d="M170.8,115.4h-1.7v5.8h-1v-5.8h-1.2V115l1.2-0.4v-0.4c0-1.6,0.7-2.4,2.1-2.4c0.3,0,0.8,0.1,1.2,0.2l-0.3,0.8
		c-0.4-0.1-0.7-0.2-1-0.2c-0.4,0-0.6,0.1-0.8,0.4c-0.2,0.2-0.3,0.6-0.3,1.2v0.4h1.7L170.8,115.4L170.8,115.4z"/>
	<path d="M177.5,117.9c0,1.1-0.3,1.9-0.8,2.5c-0.5,0.6-1.3,0.9-2.2,0.9c-0.6,0-1.1-0.1-1.6-0.4c-0.5-0.3-0.8-0.7-1-1.2
		c-0.2-0.5-0.4-1.1-0.4-1.8c0-1.1,0.3-1.9,0.8-2.5c0.5-0.6,1.3-0.9,2.2-0.9s1.6,0.3,2.2,0.9C177.3,116,177.5,116.9,177.5,117.9z
		 M172.7,117.9c0,0.8,0.2,1.5,0.5,1.9c0.3,0.4,0.8,0.7,1.5,0.7c0.7,0,1.1-0.2,1.5-0.7c0.3-0.4,0.5-1.1,0.5-1.9s-0.2-1.5-0.5-1.9
		c-0.3-0.4-0.8-0.6-1.5-0.6c-0.6,0-1.1,0.2-1.5,0.6S172.7,117.1,172.7,117.9z"/>
	<path d="M182.2,114.5c0.3,0,0.5,0,0.8,0.1l-0.1,0.9c-0.3-0.1-0.5-0.1-0.7-0.1c-0.5,0-1,0.2-1.4,0.6s-0.6,1-0.6,1.6v3.5h-1v-6.4h0.8
		l0.1,1.2l0,0c0.2-0.4,0.5-0.8,0.9-1C181.5,114.6,181.8,114.5,182.2,114.5z"/>
	<path d="M192.4,121.2V117c0-0.5-0.1-0.9-0.3-1.2c-0.2-0.3-0.6-0.4-1-0.4c-0.6,0-1.1,0.2-1.4,0.5c-0.3,0.4-0.4,0.9-0.4,1.6v3.6h-1
		v-4.2c0-0.5-0.1-0.9-0.3-1.2c-0.2-0.3-0.6-0.4-1-0.4c-0.6,0-1.1,0.2-1.4,0.6c-0.3,0.4-0.4,1-0.4,1.8v3.4h-1v-6.4h0.8l0.2,0.9l0,0
		c0.2-0.3,0.4-0.6,0.8-0.7c0.4-0.1,0.7-0.3,1.1-0.3c1,0,1.7,0.4,2,1.1l0,0c0.2-0.3,0.5-0.6,0.8-0.8c0.4-0.2,0.8-0.3,1.3-0.3
		c0.7,0,1.3,0.2,1.7,0.6c0.4,0.4,0.5,1,0.5,1.8v4.3C193.4,121.2,192.4,121.2,192.4,121.2z"/>
</g>
</svg>
