<?xml version="1.0" encoding="utf-8"?>
<!-- Generator: Adobe Illustrator 26.0.3, SVG Export Plug-In . SVG Version: 6.00 Build 0)  -->
<svg version="1.1" id="Layer_1" xmlns="http://www.w3.org/2000/svg" xmlns:xlink="http://www.w3.org/1999/xlink" x="0px" y="0px"
	 viewBox="0 0 200 200" style="enable-background:new 0 0 200 200;" xml:space="preserve">
<g>
	<g>
		<path d="M99.68,22c45.02,0.35,79.09,34.6,78.93,78.24c-0.16,43.84-34.34,77.65-78.92,77.76c-43,0.1-78.29-33.61-78.3-77.96
			C21.38,55.49,56.97,22.11,99.68,22z M158.07,100.17c0.02-32.11-24.6-57.56-58.5-57.71c-33.26-0.15-57.74,26.78-57.68,57.66
			c0.06,31.13,24.85,57.77,57.85,57.51C133.54,157.36,157.97,132.02,158.07,100.17z"/>
		<path d="M99.56,133.7c-18.86-0.01-34.06-15.05-34.04-33.71c0.01-18.59,15.35-33.62,34.12-33.72c17.85-0.1,34.84,14.78,34.95,33.59
			C134.69,118.91,117.47,134.17,99.56,133.7z"/>
	</g>
</g>
</svg>
