<?xml version="1.0" encoding="utf-8"?>
<!-- Generator: Adobe Illustrator 26.0.3, SVG Export Plug-In . SVG Version: 6.00 Build 0)  -->
<svg version="1.1" id="Layer_1" xmlns="http://www.w3.org/2000/svg" xmlns:xlink="http://www.w3.org/1999/xlink" x="0px" y="0px"
	 viewBox="0 0 200 200" style="enable-background:new 0 0 200 200;" xml:space="preserve">
<style type="text/css">
	.st0{fill:#000C3C;}
	.st1{fill:#BDBDBD;}
</style>
<g>
	<g>
		<g>
			<path class="st0" d="M90,93.1c5.7,0,10,4.4,10,9.9c0,5.5-4.3,9.8-10,9.8c-5.4,0-9.9-4.2-9.9-9.8C80.1,97.3,84.6,93.1,90,93.1z
				 M97.3,102.9c0-4-3.1-7.3-7.4-7.3c-4.2,0-7.3,3.4-7.3,7.3c0,3.9,3.1,7.3,7.3,7.3C94.3,110.1,97.3,106.9,97.3,102.9z"/>
			<path class="st1" d="M90,107.1c-2.4,0-4.3-1.9-4.3-4.3c0-2.3,1.9-4.2,4.3-4.3c2.3,0,4.4,1.9,4.4,4.2
				C94.4,105.3,92.2,107.2,90,107.1z"/>
		</g>
	</g>
	<g>
		<path class="st0" d="M24.1,99.7c0,3.7-1.1,6.8-3.4,9.2c-2.3,2.4-5.2,3.6-8.8,3.6H2.7v-26h8.7c4.1,0,7.2,1.3,9.5,3.8
			C23,92.7,24.1,95.8,24.1,99.7z M17.9,99.5c0-2.1-0.5-3.9-1.5-5.4c-1.1-1.6-2.6-2.4-4.5-2.4H8.9v15.6h2.9c1.9,0,3.4-0.8,4.5-2.4
			C17.4,103.4,17.9,101.6,17.9,99.5z"/>
		<path class="st0" d="M33.7,91.3H28v-5.2h5.7V91.3z M33.7,112.5H28V93h5.7V112.5z"/>
		<path class="st0" d="M55.8,105.4c0.1,0.4,0.1,0.7,0.1,1.1c0,1.8-0.8,3.3-2.5,4.6c-1.7,1.2-3.7,1.8-6.1,1.8c-1,0-2-0.1-3-0.3
			c-1.3-0.3-2.4-0.7-3.3-1.3c-1.1-0.7-1.7-1.7-2-2.8l-0.3-1.3l4.6-0.6l0.2,0.7c0.2,0.6,0.7,1,1.4,1.3c0.8,0.3,1.6,0.5,2.5,0.5
			c1,0,1.8-0.2,2.4-0.5c0.7-0.3,1.1-0.8,1.1-1.4c0-0.1,0-0.2,0-0.2c-0.1-0.6-0.7-1-1.9-1.3c-1.1-0.2-2.2-0.3-3.3-0.5
			c-1.5-0.3-2.4-0.5-2.9-0.7c-0.9-0.4-1.7-0.9-2.3-1.7c-0.4-0.6-0.8-1.1-1-1.7c-0.2-0.5-0.3-1.2-0.3-1.9c0-2.1,0.8-3.7,2.5-4.8
			c1.4-1,3.3-1.5,5.5-1.5c2.3,0,4,0.4,5.1,1.3c1,0.7,1.8,2,2.6,3.8l-4,1.1l-0.3-0.7c-0.2-0.6-0.7-1-1.4-1.4
			c-0.7-0.3-1.5-0.5-2.3-0.5c-0.8,0-1.5,0.1-2,0.4c-0.5,0.3-0.8,0.7-0.8,1.2c0,0.1,0,0.3,0.1,0.5c0.2,0.5,0.8,0.9,1.9,1.1
			c0.4,0.1,1.5,0.3,3.5,0.6c1.5,0.2,2.5,0.5,3.1,0.8c0.9,0.4,1.5,1,2,1.7C55.2,103.5,55.6,104.4,55.8,105.4z"/>
		<path class="st0" d="M77,100.3l-5.4,0.2c-0.1-1.2-0.3-2-0.5-2.4c-0.4-0.7-1.2-1-2.5-1c-1.2,0-2.1,0.6-2.6,1.8
			c-0.5,1-0.7,2.2-0.7,3.7c0,0.2,0,0.4,0,0.6c0,0.2,0,0.4,0.1,0.7c0.1,1.4,0.3,2.3,0.6,2.9c0.5,0.9,1.3,1.4,2.5,1.4
			c0.9,0,1.6-0.3,2.2-0.9c0.6-0.6,0.9-1.4,0.9-2.4l5.4,0.3c-0.4,2.3-1.3,4.1-2.5,5.4c-1.5,1.4-3.5,2.1-6.1,2.1
			c-2.7,0-4.9-0.8-6.6-2.4c-1.9-1.7-2.8-4-2.8-6.8c0-2.9,0.8-5.4,2.5-7.4c1.8-2.2,4.1-3.3,6.9-3.3c2,0,3.6,0.4,4.9,1.1
			c1.1,0.6,2,1.6,2.6,2.8C76.3,97.6,76.7,98.8,77,100.3z"/>
	</g>
	<g>
		<path class="st0" d="M117.2,93l-4.8,19.6h-5.1L101.4,93h5.4l3.2,11.4l2.7-11.4H117.2z"/>
		<path class="st0" d="M138.1,103.8h-12.3v1.7c0,0.9,0.4,1.7,1.1,2.4c0.8,0.7,1.6,1,2.6,1c0.9,0,1.7-0.3,2.4-1
			c0.6-0.5,0.9-1,0.9-1.5v-0.6l5.3,0.3l-0.2,0.4c-0.6,1.9-1.6,3.4-3,4.5c-1.6,1.2-3.5,1.8-5.8,1.8c-2.7,0-4.9-1-6.7-2.9
			c-1.7-1.9-2.6-4.1-2.6-6.8c0-2.8,0.8-5.3,2.3-7.3c1.7-2.3,4-3.4,7-3.4c2.6,0,4.8,0.9,6.5,2.8c1.7,1.8,2.6,4.2,2.6,7L138.1,103.8z
			 M132.4,100.4c0-0.2,0.1-0.5,0.1-0.7c0-0.9-0.3-1.7-0.8-2.3c-0.6-0.7-1.4-1-2.3-1c-0.9,0-1.8,0.4-2.5,1.1
			c-0.7,0.7-1.1,1.5-1.1,2.4c0,0.2,0,0.4,0.1,0.6H132.4z"/>
		<path class="st0" d="M152.2,98.6c-0.8,0-1.4,0-1.7,0.1c-0.5,0.1-1,0.4-1.4,0.8c-0.6,0.6-1,1.3-1.2,2.3c-0.3,1-0.4,2.1-0.4,3.4v7.3
			H142V93h5.2v3.9c0.1-0.2,0.1-0.5,0.3-0.8c0.1-0.3,0.2-0.5,0.3-0.6c0.7-1.1,1.4-1.8,1.9-2.2c0.5-0.4,1-0.6,1.6-0.6h1.1V98.6z"/>
		<path class="st0" d="M174.3,112.6h-18.5v-26h18.5v5.2h-12.4v5.2h9.7v5h-9.8v5.4h12.5V112.6z"/>
		<path class="st0" d="M196.3,112.6h-18.5v-26h18.5v5.2h-12.4v5.2h9.7v5h-9.8v5.4h12.5V112.6z"/>
	</g>
</g>
</svg>
