<?xml version="1.0" encoding="utf-8"?>
<!-- Generator: Adobe Illustrator 26.0.3, SVG Export Plug-In . SVG Version: 6.00 Build 0)  -->
<svg version="1.1" id="Layer_1" xmlns="http://www.w3.org/2000/svg" xmlns:xlink="http://www.w3.org/1999/xlink" x="0px" y="0px"
	 viewBox="0 0 200 200" style="enable-background:new 0 0 200 200;" xml:space="preserve">
<g>
	<g>
		<g>
			<path d="M90.8,85c5.5,0,9.6,4.2,9.6,9.5c0,5.3-4.2,9.5-9.6,9.5c-5.2,0-9.5-4.1-9.5-9.5C81.3,89.1,85.6,85.1,90.8,85z M97.9,94.6
				c0-3.9-3-7-7.1-7c-4,0-7,3.3-7,7c0,3.8,3,7,7,7C94.9,101.5,97.9,98.4,97.9,94.6z"/>
			<path d="M90.8,98.6c-2.3,0-4.1-1.8-4.1-4.1c0-2.3,1.9-4.1,4.2-4.1c2.2,0,4.2,1.8,4.3,4.1C95.1,96.8,93,98.7,90.8,98.6z"/>
		</g>
	</g>
	<g>
		<path d="M27.2,91.5c0,3.6-1.1,6.5-3.3,8.9c-2.2,2.3-5,3.5-8.5,3.5H6.6V78.7H15c3.9,0,7,1.2,9.2,3.7C26.2,84.7,27.2,87.7,27.2,91.5
			z M21.2,91.2c0-2-0.5-3.8-1.5-5.2c-1.1-1.5-2.6-2.3-4.4-2.3h-2.8v15.1h2.8c1.8,0,3.2-0.8,4.3-2.4C20.7,95,21.2,93.3,21.2,91.2z"/>
		<path d="M36.5,83.4H31v-5h5.5V83.4z M36.5,103.9H31V85h5.5V103.9z"/>
		<path d="M57.8,97c0.1,0.4,0.1,0.7,0.1,1c0,1.8-0.8,3.2-2.4,4.4c-1.6,1.2-3.6,1.7-5.9,1.7c-1,0-2-0.1-2.9-0.3
			c-1.3-0.3-2.3-0.7-3.1-1.3c-1-0.7-1.7-1.6-2-2.7l-0.3-1.2l4.5-0.6l0.2,0.7c0.2,0.6,0.6,1,1.4,1.3c0.7,0.3,1.6,0.5,2.4,0.5
			c0.9,0,1.7-0.1,2.3-0.4c0.7-0.3,1-0.8,1-1.3c0-0.1,0-0.2,0-0.2c-0.1-0.6-0.7-1-1.8-1.2c-1.1-0.2-2.1-0.3-3.2-0.5
			c-1.4-0.3-2.3-0.5-2.8-0.7c-0.9-0.3-1.7-0.9-2.3-1.7c-0.4-0.6-0.7-1.1-0.9-1.6c-0.2-0.5-0.3-1.1-0.3-1.8c0-2,0.8-3.6,2.4-4.7
			c1.4-0.9,3.2-1.4,5.3-1.4c2.2,0,3.8,0.4,5,1.2c0.9,0.7,1.8,1.9,2.5,3.6l-3.9,1.1l-0.2-0.7c-0.2-0.6-0.6-1-1.3-1.3
			c-0.7-0.3-1.4-0.5-2.2-0.5c-0.8,0-1.4,0.1-1.9,0.4c-0.5,0.3-0.8,0.7-0.8,1.2c0,0.1,0,0.3,0.1,0.5c0.2,0.5,0.8,0.8,1.9,1.1
			c0.3,0.1,1.5,0.3,3.4,0.6c1.4,0.2,2.5,0.5,3,0.8c0.8,0.4,1.5,1,1.9,1.7C57.3,95.1,57.6,96,57.8,97z"/>
		<path d="M78.3,92l-5.2,0.2c-0.1-1.1-0.3-1.9-0.5-2.3c-0.4-0.7-1.2-1-2.4-1c-1.1,0-2,0.6-2.6,1.8c-0.4,0.9-0.7,2.1-0.7,3.6
			c0,0.2,0,0.3,0,0.5c0,0.2,0,0.4,0,0.7c0.1,1.3,0.3,2.3,0.6,2.8c0.4,0.9,1.2,1.3,2.4,1.3c0.9,0,1.6-0.3,2.1-0.9
			c0.6-0.6,0.9-1.3,0.9-2.3l5.2,0.3c-0.4,2.3-1.2,4-2.5,5.2c-1.4,1.4-3.4,2-5.9,2c-2.6,0-4.7-0.8-6.4-2.3c-1.8-1.7-2.7-3.9-2.7-6.6
			c0-2.8,0.8-5.2,2.4-7.1c1.7-2.1,4-3.2,6.7-3.2c1.9,0,3.5,0.4,4.8,1.1c1.1,0.6,1.9,1.5,2.5,2.7C77.6,89.5,78,90.6,78.3,92z"/>
	</g>
	<g>
		<path d="M117.1,85l-4.6,18.9h-4.9L101.9,85h5.2l3.1,11l2.6-11H117.1z"/>
		<path d="M137.3,95.4h-11.9V97c0,0.9,0.4,1.7,1.1,2.3c0.7,0.7,1.6,1,2.5,1c0.9,0,1.6-0.3,2.3-0.9c0.6-0.5,0.9-1,0.9-1.4v-0.6
			l5.1,0.3l-0.1,0.4c-0.6,1.9-1.6,3.3-2.9,4.3c-1.5,1.2-3.4,1.7-5.6,1.7c-2.6,0-4.8-0.9-6.5-2.8c-1.7-1.8-2.5-4-2.5-6.5
			c0-2.7,0.7-5.1,2.2-7c1.7-2.2,3.9-3.3,6.7-3.3c2.6,0,4.7,0.9,6.3,2.7c1.7,1.8,2.5,4,2.5,6.8L137.3,95.4z M131.8,92.1
			c0-0.2,0.1-0.4,0.1-0.7c0-0.9-0.3-1.6-0.8-2.2c-0.6-0.7-1.3-1-2.3-1c-0.9,0-1.7,0.3-2.4,1c-0.7,0.7-1.1,1.5-1.1,2.3
			c0,0.2,0,0.4,0,0.6H131.8z"/>
		<path d="M150.9,90.4c-0.8,0-1.4,0-1.7,0.1c-0.5,0.1-1,0.3-1.4,0.8c-0.5,0.5-0.9,1.3-1.2,2.2c-0.2,1-0.4,2.1-0.4,3.3v7.1H141V85h5
			v3.7c0.1-0.2,0.1-0.5,0.3-0.8c0.1-0.3,0.2-0.5,0.3-0.6c0.7-1.1,1.3-1.8,1.8-2.1c0.5-0.4,1-0.5,1.5-0.5h1V90.4z"/>
		<path d="M172.2,103.9h-17.9V78.7h17.9v5h-12v5h9.4v4.8h-9.5v5.2h12.1V103.9z"/>
		<path d="M193.4,103.9h-17.9V78.7h17.9v5h-12v5h9.4v4.8h-9.5v5.2h12.1V103.9z"/>
	</g>
</g>
</svg>
