<?xml version="1.0" encoding="utf-8"?>
<!-- Generator: Adobe Illustrator 26.0.3, SVG Export Plug-In . SVG Version: 6.00 Build 0)  -->
<svg version="1.1" id="Layer_1" xmlns="http://www.w3.org/2000/svg" xmlns:xlink="http://www.w3.org/1999/xlink" x="0px" y="0px"
	 viewBox="0 0 200 200" style="enable-background:new 0 0 200 200;" xml:space="preserve">
<style type="text/css">
	.st0{fill:#000C3C;}
	.st1{fill:#BDBDBD;}
</style>
<g>
	<g>
		<path class="st0" d="M99.6,22c44.9,0.4,78.8,34.5,78.7,78c-0.2,43.7-34.2,77.4-78.6,77.5c-42.8,0.1-78-33.5-78-77.7
			C21.6,55.4,57,22.1,99.6,22z M157.8,99.9c0-32-24.5-57.3-58.3-57.5C66.3,42.2,42,69.1,42,99.9c0.1,31,24.8,57.6,57.6,57.3
			C133.3,156.9,157.7,131.6,157.8,99.9z"/>
		<path class="st1" d="M99.5,133.3c-18.8,0-33.9-15-33.9-33.6c0-18.5,15.3-33.5,34-33.6c17.8-0.1,34.7,14.7,34.8,33.5
			C134.5,118.6,117.3,133.8,99.5,133.3z"/>
	</g>
</g>
</svg>
